<svg width="19" height="19" viewBox="0 0 19 19" fill="none" xmlns="http://www.w3.org/2000/svg">
<g clip-path="url(#clip0_719_1058)">
<path d="M9.5 6.33008C7.79 6.33008 6.33 7.78008 6.33 9.50008C6.33 11.2201 7.78 12.6701 9.5 12.6701C11.22 12.6701 12.67 11.2201 12.67 9.50008C12.67 7.78008 11.22 6.33008 9.5 6.33008Z" fill="white"/>
<path d="M13.56 0H5.53C2.42 0 0 2.42 0 5.44V13.47C0 16.58 2.42 19 5.53 19H13.56C16.58 19 19 16.58 19 13.47V5.44C19 2.42 16.58 0 13.56 0ZM9.5 14.51C6.74 14.51 4.58 12.26 4.58 9.59C4.58 6.92 6.74 4.58 9.5 4.58C12.26 4.58 14.42 6.83 14.42 9.5C14.42 12.17 12.26 14.51 9.5 14.51ZM14.6 5.61C14 5.61 13.48 5.09 13.48 4.49C13.48 3.89 14 3.37 14.6 3.37C15.2 3.37 15.72 3.89 15.72 4.49C15.72 5.09 15.2 5.61 14.6 5.61Z" fill="white"/>
</g>
<defs>
<clipPath id="clip0_719_1058">
<rect width="19" height="19" fill="white"/>
</clipPath>
</defs>
</svg>
