<svg width="13" height="16" viewBox="0 0 13 16" fill="none" xmlns="http://www.w3.org/2000/svg">
<g clip-path="url(#clip0_677_4611)">
<path d="M6.22531 14.6778C6.38366 14.8159 6.61605 14.8159 6.77471 14.6778C7.8596 13.7331 11.7885 10.0706 11.7885 6.56719C11.7885 3.61344 9.42075 1.21875 6.50001 1.21875C3.57927 1.21875 1.21155 3.61344 1.21155 6.56719C1.21155 10.0706 5.14042 13.7331 6.22531 14.6778Z" stroke="#333333" stroke-linecap="round" stroke-linejoin="round"/>
<path d="M6.5 9.3125C8.01878 9.3125 9.25 8.03931 9.25 6.46875C9.25 4.89819 8.01878 3.625 6.5 3.625C4.98122 3.625 3.75 4.89819 3.75 6.46875C3.75 8.03931 4.98122 9.3125 6.5 9.3125Z" stroke="#333333" stroke-linecap="round" stroke-linejoin="round"/>
</g>
<defs>
<clipPath id="clip0_677_4611">
<rect width="13" height="16" fill="white"/>
</clipPath>
</defs>
</svg>
