<svg width="114" height="48" viewBox="0 0 114 48" fill="none" xmlns="http://www.w3.org/2000/svg">
<g clip-path="url(#clip0_1_4534)">
<path d="M31.3125 21.7765C31.3003 21.8732 31.2605 22.0105 31.0617 22.0698H31.0495C30.7038 22.1073 30.3949 22.1385 30.1502 22.1666C29.4497 22.2227 28.786 22.3039 28.1467 22.3819H28.1192C26.446 22.5847 24.7178 22.7907 22.176 22.6909C18.9857 22.5691 18.0253 22.3975 17.3891 22.2852H17.3829C17.0128 22.2165 16.7437 22.1697 16.2237 22.1697C15.5079 22.1697 14.9543 22.41 14.315 22.6846C13.6207 22.9842 12.7581 23.3587 11.2807 23.6364C11.0054 23.6895 10.7179 23.755 10.4059 23.8393H10.3967H10.3876L9.72992 23.6208C8.65629 23.2651 7.0015 22.7221 5.20295 22.1603C4.38015 21.9044 3.7531 21.7421 3.23005 21.6454C2.92112 21.5643 2.09525 21.3552 1.05833 21.1398L1.0461 21.1336C0.948216 21.0962 0.88704 21.0181 0.874805 20.9152V20.9089V16.3932C0.877864 7.8424 7.70808 0.886288 16.0952 0.886288C24.4823 0.886288 31.3217 7.84864 31.3217 16.4088L31.3125 21.7765ZM0.868688 26.392V22.3975C0.917628 22.1915 1.04304 22.0854 1.22962 22.0854H1.23574H1.24492C2.11972 22.2758 2.79265 22.4474 3.04347 22.5098C3.56346 22.6066 4.16909 22.7626 4.94602 23.006C6.18787 23.393 7.51843 23.8206 8.90099 24.2762L8.99581 24.3074L8.90099 24.3448C7.58573 24.8785 6.49987 25.5432 5.85141 25.9395L5.83306 25.9489C5.61283 26.0862 5.42012 26.2017 5.30083 26.261C4.9246 26.4482 3.92133 26.52 3.11688 26.5762H3.0557C2.67642 26.6074 2.28184 26.6355 1.95455 26.676C1.81079 26.6948 1.64255 26.701 1.41926 26.701C1.34585 26.701 1.26939 26.701 1.18374 26.701H1.17151C0.978803 26.6885 0.865629 26.5356 0.868688 26.3952V26.3858V26.392ZM31.3034 27.7683C31.2911 27.9212 31.1718 28.0023 31.1015 28.0179H31.0923C29.6792 28.2395 28.1314 28.6702 27.1067 28.9573L27.067 28.9698C26.5806 29.104 26.0821 29.2444 25.7578 29.313C24.7178 29.5346 19.9645 30.7486 18.8267 31.4164C17.909 31.9532 13.1343 32.518 10.773 32.5524C9.50663 32.5711 8.28618 32.749 7.48479 32.8956C6.86692 33.008 6.47234 33.1079 6.40199 33.1266L6.31634 33.1547H6.30716C5.90647 33.0766 5.55165 33.008 4.93378 32.9081C4.65849 32.8613 4.35262 32.8051 4.06203 32.749L3.95804 32.7302C3.30652 32.6054 2.31548 32.4275 1.24492 32.3214C1.12562 32.3152 0.88704 32.2122 0.868688 32.0094V32.0031V27.9025C0.905393 27.7589 0.966568 27.6216 1.16233 27.5966H1.16845C1.5875 27.5998 1.84749 27.5904 2.05855 27.5654C2.36748 27.528 2.74371 27.4999 3.11076 27.4749H3.16888C4.14462 27.4 5.15095 27.3314 5.68012 27.0661C5.82694 26.9943 6.04717 26.8602 6.29799 26.7041C7.31044 26.0831 9.19769 24.9284 11.4336 24.5102C13.0028 24.2138 13.9174 23.8174 14.6515 23.4991H14.6545C15.2724 23.2307 15.6792 23.0529 16.2175 23.0529C16.6672 23.0529 16.8966 23.0934 17.2392 23.1558C17.8968 23.2744 18.8909 23.4492 22.1362 23.574C24.7545 23.6739 26.5164 23.4648 28.2201 23.2619L28.2629 23.2557C28.8533 23.1839 29.5232 23.1059 30.2297 23.0466C30.2481 23.0466 30.5264 23.0123 30.9332 22.9748H30.9363H30.9455H30.9547C31.1107 22.9748 31.2942 23.1465 31.3034 23.3025V23.3088L31.2972 27.7683H31.3034ZM31.2911 35.8135C31.2911 35.9415 31.1871 36.1412 30.973 36.1599H30.9577C29.4467 36.0164 27.3361 35.9134 25.8251 35.9134C25.5621 35.9134 25.3174 35.9165 25.1002 35.9228C25.036 35.9228 24.9687 35.9228 24.8983 35.9228C22.7755 35.9228 19.05 35.1582 18.8909 35.127C13.7828 34.1127 11.3511 33.8537 9.74215 33.6821L9.42098 33.6477C9.32616 33.6384 9.23746 33.629 9.14875 33.6165L8.81535 33.5791L9.14875 33.5416C9.7238 33.4792 10.2744 33.4418 10.7882 33.4355C13.0731 33.4012 18.1048 32.8644 19.261 32.181C20.2459 31.6037 24.88 30.3991 25.9383 30.1775C26.2778 30.1057 26.7611 29.9715 27.3178 29.8155L27.3453 29.8092C28.318 29.5377 29.6516 29.1664 30.9271 28.9448H30.9302C31.0281 28.9292 31.1198 28.9573 31.1871 29.0197C31.2575 29.0852 31.3003 29.1789 31.3003 29.2756L31.2881 35.8104L31.2911 35.8135ZM31.285 38.3725C31.285 38.4693 31.2085 38.6752 30.9852 38.7002H30.9699H30.9638C29.826 38.6347 28.5902 38.5972 27.642 38.5723C25.1583 38.5067 22.592 38.4381 20.1664 38.0886C17.5756 37.7109 16.5051 37.9575 15.0216 38.3008C14.055 38.5223 12.8529 38.8001 10.8372 38.9499C8.36571 39.134 4.30979 39.7394 1.40091 40.3604H1.39174C1.37338 40.3636 1.35503 40.3636 1.33668 40.3636C1.2235 40.3636 1.10727 40.3199 1.02163 40.2419C0.951274 40.1763 0.865629 40.0577 0.865629 39.8642V33.5104C0.883982 33.3201 1.00021 33.1952 1.15927 33.1952H1.16539H1.17456C2.1809 33.2951 3.10464 33.4636 3.79898 33.5978L3.92133 33.6197C4.23332 33.679 4.52697 33.7351 4.79614 33.7788C5.47824 33.8912 5.91564 33.9754 6.34081 34.0597L6.41116 34.0722C6.90668 34.1689 7.41749 34.2657 8.26477 34.3967C8.68688 34.4623 9.12734 34.5091 9.68404 34.5684C11.2685 34.7369 13.6604 34.9928 18.7227 35.9977C18.7624 36.007 22.6624 36.8122 24.9197 36.8122C24.9901 36.8122 25.0574 36.8122 25.1247 36.8122C26.7642 36.7654 29.465 36.9027 31.0281 37.0587H31.0372C31.1871 37.0806 31.2881 37.1898 31.285 37.3302V37.3365V38.3757V38.3725ZM31.2758 45.9497H0.868688V41.6992C0.874805 41.5682 1.00021 41.3622 1.18986 41.3247C4.05592 40.6788 8.31983 40.0234 10.9045 39.833C12.9814 39.677 14.2232 39.393 15.2204 39.1621C16.6121 38.8406 17.6154 38.6097 20.0471 38.9655C22.5247 39.3244 25.1216 39.393 27.6328 39.4585C28.6728 39.4866 29.8749 39.521 31.0005 39.5865H31.0128C31.1504 39.6052 31.2789 39.7425 31.2881 39.8798V39.8861L31.2819 45.9528L31.2758 45.9497ZM16.0952 0C7.3502 0 0.131527 7.25258 0 16.1685V46.836H32.1415L32.1873 16.4088C32.1904 7.36181 24.9717 0 16.0952 0Z" fill="#111111"/>
<path d="M50.5735 29.803C50.861 29.803 50.8916 29.6501 50.8916 29.5814C50.8916 29.519 50.8671 29.3754 50.6286 29.3349C50.1942 29.2725 50.0137 29.1788 49.9373 29.1071C49.8302 29.0103 49.7721 28.8792 49.7568 28.7107C49.7385 28.5141 49.7323 27.8088 49.7323 26.6105C49.7323 25.9863 49.7507 25.1968 49.7843 24.2574C49.818 23.3212 49.8547 22.6721 49.8914 22.3319C49.925 22.0168 50.0076 21.7921 50.1391 21.6672C50.2309 21.5799 50.4481 21.4675 50.9803 21.4207C51.225 21.3988 51.2434 21.2334 51.2434 21.1835C51.2434 21.1336 51.225 20.9744 50.9895 20.9401L48.3437 20.9339L48.3131 21.0088C47.1905 23.6988 46.1842 25.8116 45.3247 27.3002C45.0341 26.7915 44.7741 26.2734 44.5508 25.7554C44.3 25.1718 43.9421 24.4291 43.4925 23.549C43.1193 22.8157 42.7125 21.9606 42.2812 21.0056L42.2506 20.937L39.8954 20.8839C39.8036 20.8808 39.7241 20.8777 39.6568 20.8777C39.3784 20.8777 39.357 21.0587 39.357 21.1149C39.357 21.2553 39.4733 21.3396 39.7057 21.3708C40.0605 21.4145 40.3175 21.5486 40.4979 21.7765C40.6784 22.0043 40.7671 22.4537 40.7702 23.1028L40.6784 26.0456L40.6906 27.2034C40.6906 28.3612 40.5377 28.8137 40.4123 28.9885C40.2318 29.235 39.9504 29.363 39.5558 29.3754C39.2469 29.3848 39.2133 29.5596 39.2133 29.6345C39.2133 29.7094 39.2561 29.7811 39.3448 29.8404L39.3815 29.8529L39.4213 29.8592C40.0391 29.8155 40.5499 29.7936 40.9415 29.7936L41.853 29.7999L42.2659 29.7936L42.4066 29.7999C42.6666 29.7999 42.688 29.6251 42.688 29.572C42.688 29.3942 42.5351 29.3068 42.2323 29.3068C41.9294 29.3068 41.6817 29.2163 41.5196 29.0259C41.4064 28.8948 41.2687 28.5641 41.2687 27.7402L41.3575 22.4973C41.44 22.644 41.645 23.0372 42.1435 24.0452C42.6605 25.0876 43.1132 26.0331 43.4894 26.857C44.2021 28.3019 44.5997 29.1695 44.6762 29.4347C44.7282 29.6064 44.8108 29.6938 44.9178 29.6938C44.9851 29.6938 45.0463 29.6657 45.0953 29.6126C45.1167 29.5908 45.1473 29.5533 45.343 29.079L45.7437 28.0835C45.9272 27.6278 46.4319 26.5668 47.2456 24.9315L48.4752 22.4537L48.2917 27.0973C48.2917 27.9836 48.2641 28.5422 48.2091 28.7575C48.1571 28.9541 48.0837 29.0915 47.9888 29.1601C47.9185 29.2132 47.7472 29.2849 47.3251 29.3411C47.0987 29.3723 47.0712 29.5128 47.0712 29.5752C47.0712 29.6594 47.114 29.803 47.4107 29.803L50.5796 29.8092L50.5735 29.803Z" fill="#111111"/>
<path d="M51.8704 24.5102C52.0049 24.5165 52.0478 24.5477 52.0508 24.557C52.06 24.5758 52.0845 24.6694 52.0845 25.0407C52.0845 25.5619 52.0967 26.289 52.1242 27.2034C52.1518 28.1396 52.2007 28.7138 52.2741 28.9573C52.3536 29.2132 52.5158 29.4316 52.7574 29.6095C52.999 29.7874 53.2988 29.8748 53.6506 29.8748C54.0543 29.8748 54.4458 29.7593 54.8159 29.5346C55.1096 29.3567 55.394 29.1039 55.6693 28.7825C55.6693 28.8543 55.6724 28.9136 55.6724 28.9635C55.6724 29.0946 55.6663 29.2256 55.654 29.3536C55.6479 29.4004 55.6479 29.4441 55.6479 29.4847C55.6479 29.5752 55.6846 29.7843 56.0333 29.7843H57.0519C57.162 29.7843 57.5015 29.7843 57.5015 29.544C57.5015 29.4815 57.474 29.3286 57.2262 29.2912C57.0825 29.2787 56.9815 29.2225 56.9173 29.1227C56.8775 29.0602 56.8103 28.8605 56.8103 28.2301L56.8623 25.7523C56.8623 25.1593 56.8439 24.6163 56.8041 24.1357L56.795 24.0234H55.394C55.1432 24.0234 55.0851 24.0421 55.0515 24.0608C55.0086 24.0827 54.9413 24.1357 54.9413 24.2637C54.9413 24.3167 54.9597 24.4853 55.2013 24.4977C55.4185 24.5133 55.5623 24.5633 55.6082 24.6413C55.6357 24.685 55.6938 24.8691 55.6938 25.5994C55.6938 26.7915 55.6571 27.5623 55.5867 27.8869C55.5195 28.1958 55.3359 28.4923 55.0454 28.7669C54.5437 29.2381 54.0268 29.3161 53.6475 28.9354C53.4823 28.77 53.3875 28.5641 53.3569 28.305C53.3233 28.0273 53.3019 27.4593 53.2927 26.6167C53.2743 25.2561 53.256 24.4197 53.2346 24.1326L53.2254 24.0203H51.9285C51.8214 24.0203 51.5002 24.0203 51.5002 24.2543C51.5002 24.4041 51.6257 24.4884 51.8704 24.5071V24.5102Z" fill="#111111"/>
<path d="M59.0432 29.541C59.0646 29.5035 59.0982 29.4598 59.1288 29.4598C59.138 29.4598 59.2022 29.4754 59.4897 29.6065C59.921 29.8093 60.3003 29.9155 60.6154 29.9155C61.1506 29.9155 61.6217 29.7188 62.0132 29.3319C62.4047 28.9449 62.6035 28.4737 62.6035 27.9338C62.6035 27.6997 62.5485 27.475 62.4414 27.2597C62.3344 27.0475 62.1998 26.8759 62.0407 26.751C61.8847 26.6262 61.5789 26.4608 61.1017 26.2392C60.1045 25.7805 59.9302 25.6744 59.8996 25.6494C59.8384 25.5964 59.7681 25.5121 59.6916 25.3966C59.6243 25.2936 59.5907 25.1813 59.5907 25.0502C59.5907 24.8443 59.6733 24.6789 59.8415 24.5478C60.0189 24.4105 60.2483 24.3418 60.5297 24.3418C60.7102 24.3418 60.8968 24.3855 61.0864 24.4698C61.2638 24.5509 61.4351 24.7444 61.5942 25.0502C61.8022 25.4528 61.8725 25.6276 61.8939 25.7056C61.949 25.8897 62.0407 25.9802 62.1631 25.9802C62.2304 25.9802 62.3925 25.949 62.3925 25.6463C62.3925 25.4154 62.3803 25.1189 62.3527 24.7631C62.313 24.1983 62.2854 24.1608 62.264 24.1234C62.2212 24.0547 62.1539 24.0173 62.0774 24.0173C61.9857 24.0173 61.9153 24.0984 61.8603 24.1702C61.8297 24.2139 61.8083 24.2264 61.8113 24.2295C61.7899 24.2295 61.7471 24.2201 61.689 24.192C60.6551 23.6428 59.7864 23.7707 59.1686 24.3325C58.8076 24.6601 58.6241 25.0721 58.6241 25.5589C58.6241 25.8148 58.6822 26.0582 58.7985 26.2767C58.9147 26.4951 59.0799 26.673 59.2848 26.8041C59.4806 26.9258 59.8507 27.113 60.4257 27.3752C61.1935 27.7247 61.585 28.121 61.585 28.5486C61.585 28.8232 61.4902 29.0354 61.2944 29.1946C61.0925 29.36 60.8662 29.4411 60.6062 29.4411C60.233 29.4411 59.9118 29.2819 59.6335 28.9605C59.3429 28.6266 59.1135 28.2115 58.9545 27.7309C58.8963 27.5499 58.7893 27.5219 58.7281 27.5219C58.6547 27.5219 58.4834 27.5562 58.4834 27.8963C58.4926 28.0024 58.4987 28.249 58.5018 28.6266C58.5048 29.0791 58.514 29.36 58.5293 29.491C58.5538 29.7344 58.6608 29.7875 58.7465 29.7875C58.9086 29.7875 59.0126 29.6034 59.0462 29.5441L59.0432 29.541Z" fill="#111111"/>
<path d="M66.2588 29.8374C66.4454 29.8374 66.5127 29.7188 66.5127 29.6096C66.5127 29.3631 66.1609 29.3444 66.0447 29.3381C65.8703 29.3319 65.7419 29.2913 65.6623 29.2258C65.6287 29.1977 65.5553 29.0947 65.5553 28.7171L65.5614 27.9275L65.5492 25.5059L65.5553 23.8987H65.4329C65.2463 23.9049 64.9099 23.9268 64.4327 23.9611C63.6864 24.0173 63.6466 24.0422 63.6099 24.0641C63.5396 24.1078 63.5028 24.1764 63.5028 24.2607C63.5028 24.3699 63.5763 24.4885 63.7751 24.4885C64.0442 24.4947 64.2278 24.554 64.3104 24.657C64.3501 24.707 64.4449 24.9254 64.4449 25.871L64.3991 28.5985C64.3991 29.0791 64.3379 29.1634 64.3287 29.1727C64.3073 29.1977 64.2278 29.257 63.9464 29.2944C63.8087 29.3132 63.4845 29.3537 63.4845 29.5784C63.4845 29.6939 63.5579 29.8187 63.7598 29.8187C63.8118 29.8187 63.8607 29.8125 63.9066 29.8031C64.1115 29.7688 64.4878 29.7532 65.0292 29.7532C65.3656 29.7532 65.7357 29.7781 66.1334 29.8312C66.1793 29.8374 66.2221 29.8374 66.2619 29.8374H66.2588Z" fill="#111111"/>
<path d="M64.757 22.1354C64.9772 22.1354 65.1546 22.0605 65.2831 21.9107C65.4085 21.7672 65.4697 21.5893 65.4697 21.3896C65.4697 21.2117 65.3932 21.0463 65.2372 20.8996C65.0873 20.7561 64.9099 20.6812 64.7172 20.6812C64.5092 20.6812 64.3349 20.7498 64.2033 20.8902C64.0718 21.0276 64.0045 21.2054 64.0045 21.4176C64.0045 21.6299 64.084 21.8171 64.2431 21.9513C64.393 22.0761 64.5673 22.1385 64.757 22.1385V22.1354Z" fill="#111111"/>
<path d="M71.6025 27.7558C71.523 27.7558 71.3853 27.7933 71.3425 28.0523C71.2936 28.3987 71.1345 28.6827 70.85 28.923C70.5625 29.1664 70.2658 29.2881 69.9661 29.2881C69.5011 29.2881 69.1096 29.0478 68.7731 28.5547C68.4306 28.0554 68.2593 27.3969 68.2593 26.6012C68.2593 25.924 68.3816 25.3716 68.6263 24.9597C68.8619 24.5633 69.3176 24.3605 69.7672 24.3605C70.2169 24.3605 70.587 24.4728 70.8256 24.735C71.1406 25.0814 71.2018 25.3373 71.2783 25.4933C71.367 25.6743 71.5658 25.7804 71.6637 25.64C71.7524 25.5089 71.7738 25.4059 71.7738 25.2405C71.7738 24.8442 71.5413 24.5103 71.0427 24.2169C70.5748 23.9423 70.1374 23.8799 69.651 23.8799C68.8924 23.8799 68.2379 24.1982 67.7118 24.8255C67.1887 25.4465 66.9257 26.183 66.9257 27.0131C66.9257 27.7714 67.1826 28.4455 67.6842 29.0197C68.192 29.5971 68.8282 29.8904 69.5745 29.8904C70.2567 29.8904 70.8103 29.6876 71.2202 29.2912C71.6331 28.8918 71.8411 28.4549 71.8411 27.993C71.8411 27.8463 71.7493 27.7527 71.6056 27.7527L71.6025 27.7558Z" fill="#111111"/>
<path d="M78.188 29.3349C78.0136 29.3287 77.8852 29.2881 77.8056 29.2226C77.772 29.1945 77.6986 29.0915 77.6986 28.7139L77.7047 27.9244L77.6925 25.5027L77.6986 23.8955H77.5762C77.3897 23.9017 77.0532 23.9236 76.576 23.9579C75.8297 24.0141 75.7899 24.0391 75.7532 24.0609C75.6829 24.1046 75.6462 24.1733 75.6462 24.2575C75.6462 24.3667 75.7196 24.4853 75.9184 24.4853C76.1876 24.4916 76.3711 24.5509 76.4537 24.6538C76.4934 24.7038 76.5883 24.9222 76.5883 25.8678L76.5424 28.5953C76.5424 29.0759 76.4812 29.1602 76.472 29.1695C76.4506 29.1945 76.3711 29.2538 76.0897 29.2913C75.952 29.31 75.6278 29.3505 75.6278 29.5752C75.6278 29.6907 75.7012 29.8155 75.9031 29.8155C75.9551 29.8155 76.004 29.8093 76.0499 29.7999C76.2549 29.7656 76.6311 29.75 77.1725 29.75C77.5089 29.75 77.8791 29.775 78.2767 29.828C78.3226 29.8343 78.3654 29.8343 78.4052 29.8343C78.5917 29.8343 78.659 29.7157 78.659 29.6065C78.659 29.3599 78.3073 29.3412 78.1911 29.3349H78.188Z" fill="#111111"/>
<path d="M76.9003 22.1354C77.1205 22.1354 77.2979 22.0605 77.4264 21.9107C77.5518 21.7672 77.613 21.5893 77.613 21.3896C77.613 21.2117 77.5365 21.0463 77.3805 20.8996C77.2306 20.7561 77.0532 20.6812 76.8605 20.6812C76.6525 20.6812 76.4782 20.7498 76.3466 20.8902C76.2151 21.0276 76.1478 21.2054 76.1478 21.4176C76.1478 21.6299 76.2274 21.8171 76.3864 21.9513C76.5363 22.0761 76.7106 22.1385 76.9003 22.1385V22.1354Z" fill="#111111"/>
<path d="M81.2712 29.8093L81.6137 29.8374C81.8615 29.8374 81.8737 29.6595 81.8737 29.6221C81.8737 29.569 81.8554 29.3974 81.626 29.3755C81.369 29.3443 81.21 29.2694 81.1549 29.1508C81.109 29.0541 81.054 28.7888 81.054 28.0804C81.054 26.8134 81.2161 25.9022 81.5373 25.3685C81.8493 24.8474 82.2285 24.5946 82.6904 24.5946C82.9932 24.5946 83.241 24.7288 83.4459 25.0065C83.657 25.2905 83.764 25.8866 83.764 26.7791C83.764 27.113 83.7549 27.553 83.7365 28.0898C83.712 28.7795 83.6845 28.9605 83.6692 29.0073C83.6478 29.0791 83.608 29.1321 83.556 29.1758C83.5224 29.2008 83.4245 29.2538 83.1401 29.3162C82.9382 29.3568 82.9137 29.4879 82.9137 29.5409C82.9137 29.6283 82.9596 29.775 83.2808 29.775C83.6753 29.7438 84.0516 29.7282 84.3941 29.7282C84.7704 29.7282 85.0579 29.7469 85.2567 29.7875C85.2904 29.7937 85.3271 29.7937 85.3638 29.7937C85.5014 29.7937 85.5932 29.7063 85.5932 29.5721C85.5932 29.4005 85.3729 29.3381 85.2781 29.31C85.0426 29.2445 84.9508 29.1664 84.9172 29.1134C84.8927 29.0759 84.8377 28.9324 84.8377 28.4175L84.8774 26.1986C84.8774 25.5152 84.801 25.0377 84.6388 24.7412C84.4767 24.4448 84.2443 24.2294 83.9476 24.1077C83.2838 23.8362 82.5314 23.8737 81.9288 24.2731C81.6719 24.4448 81.4302 24.682 81.2069 24.9815C81.1763 24.5353 81.1182 24.2076 81.0295 23.9892L80.9989 23.9111H80.9163C80.3933 23.9267 80.1027 23.933 80.0507 23.933L79.5277 23.9267C79.2463 23.9267 79.2157 24.089 79.2157 24.1608C79.2157 24.3636 79.4757 24.4229 79.5582 24.4448C79.7112 24.4822 79.8274 24.5758 79.9131 24.735C79.9773 24.8505 80.0538 25.1875 80.0538 26.1269C80.0538 26.9538 80.0415 27.656 80.0201 28.2115C79.9895 28.9542 79.9222 29.104 79.9039 29.1321C79.8549 29.2039 79.7418 29.2569 79.5827 29.2913C79.4726 29.3131 79.179 29.3693 79.179 29.5815C79.179 29.7313 79.3135 29.8093 79.5858 29.8093L80.0966 29.7968C80.7634 29.7968 81.161 29.8 81.2773 29.8093H81.2712Z" fill="#111111"/>
<path d="M46.0374 36.1445C45.5449 35.6889 44.6242 35.4673 43.2294 35.4673L41.1801 35.4798L39.9015 35.4735C39.6201 35.4735 39.5895 35.6358 39.5895 35.7076C39.5895 35.8948 39.8403 35.9666 40.1125 36.0197C40.3389 36.0602 40.4827 36.1538 40.5561 36.3068C40.6111 36.4222 40.6784 36.7312 40.6784 37.5363L40.6601 39.4337L40.6784 41.1876C40.6784 41.7868 40.6662 42.3235 40.6387 42.7823C40.6081 43.3222 40.5224 43.5344 40.4551 43.6155C40.3572 43.7341 40.1737 43.7996 39.929 43.9026C39.8281 43.9463 39.5803 43.9557 39.5803 44.1616C39.5803 44.2521 39.6231 44.3239 39.6966 44.3614C39.7333 44.377 39.77 44.3957 40.5438 44.3957L42.3179 44.4019C42.8532 44.4019 42.9755 44.3926 43.0214 44.3832C43.1377 44.3614 43.2111 44.274 43.2111 44.1554C43.2111 44.0025 43.0734 43.9151 42.8012 43.8964C42.6483 43.8901 42.5076 43.8371 42.373 43.7341C42.2414 43.6342 42.1527 43.5344 42.116 43.4345C42.0885 43.3596 42.0518 43.1443 42.0334 42.5482C42.0182 42.0552 42.012 41.7368 42.012 41.587C42.012 41.3936 42.0182 41.2001 42.0304 41.0097C42.0518 40.6914 42.064 40.4355 42.0671 40.242C42.4097 40.2639 42.7156 40.2732 42.9817 40.2732C44.2235 40.2732 45.1717 40.0735 45.7988 39.6772C46.4442 39.2683 46.7715 38.6536 46.7715 37.8453C46.7715 37.1681 46.5237 36.597 46.0313 36.1445H46.0374ZM45.0096 38.7753C44.8444 39.1466 44.5875 39.3994 44.2266 39.5398C43.8565 39.6865 43.4527 39.7614 43.0306 39.7614C42.9511 39.7614 42.6299 39.7521 42.0702 39.7333C42.0702 39.5929 42.0671 39.493 42.0671 39.4337L42.0916 37.8203L42.0671 36.3099C42.0671 36.2787 42.0671 36.2131 42.0702 36.107C42.3699 36.029 42.7217 35.9916 43.1132 35.9916C43.9329 35.9916 44.5019 36.1538 44.8047 36.4722C45.1136 36.7967 45.2635 37.1806 45.2635 37.6456C45.2635 38.0169 45.1779 38.3977 45.0066 38.7784L45.0096 38.7753Z" fill="#111111"/>
<path d="M55.9049 38.5036C55.2534 38.5036 54.6386 38.8063 54.0727 39.4024C53.5099 39.9984 53.2224 40.7505 53.2224 41.6399C53.2224 42.4732 53.4824 43.1691 53.9993 43.7152C54.5163 44.2614 55.1555 44.5391 55.8988 44.5391C56.4035 44.5391 56.8654 44.4268 57.2783 44.2083C57.6943 43.9867 57.9941 43.709 58.1684 43.3813L58.1837 43.3532V43.3189C58.1715 43.0505 58.0033 43.0318 57.9543 43.0318C57.8901 43.0318 57.8197 43.0661 57.627 43.2409C57.208 43.6372 56.7492 43.8401 56.2659 43.8401C55.7826 43.8401 55.3605 43.6435 55.021 43.2378C54.6814 42.8321 54.5102 42.3265 54.5102 41.7367C54.5102 41.6306 54.5163 41.4901 54.5285 41.3248L57.6484 41.2748C58.0828 41.2748 58.1929 41.2311 58.2418 41.1531C58.2847 41.0876 58.303 41.0002 58.303 40.8816C58.303 40.245 58.0522 39.6801 57.5628 39.2089C57.0734 38.7408 56.5167 38.5005 55.908 38.5005L55.9049 38.5036ZM57.0673 40.2325C57.0673 40.4291 57.0183 40.5571 56.9143 40.6288C56.795 40.71 56.6176 40.7537 56.3791 40.763L56.0426 40.7817C55.5624 40.7817 55.0607 40.7693 54.5499 40.7474C54.6447 40.1358 54.8283 39.6864 55.0944 39.4117C55.3788 39.1215 55.6633 38.978 55.9386 38.978C56.2414 38.978 56.5014 39.0997 56.7278 39.3493C56.9572 39.6021 57.0673 39.8923 57.0673 40.2325Z" fill="#111111"/>
<path d="M61.9736 38.4912C61.1477 38.4912 60.4411 38.8001 59.8752 39.4087C59.3094 40.0172 59.0219 40.7318 59.0219 41.5308C59.0219 42.3297 59.3063 43.0568 59.863 43.631C60.4228 44.2083 61.0987 44.4986 61.8757 44.4986C62.6526 44.4986 63.3592 44.1834 63.9495 43.5561C64.5368 42.932 64.8335 42.1986 64.8335 41.3716C64.8335 40.5446 64.549 39.858 63.9862 39.3119C63.4265 38.7658 62.7474 38.488 61.9705 38.488L61.9736 38.4912ZM61.9674 43.9993C61.5025 43.9993 61.1171 43.7714 60.7959 43.3002C60.4686 42.8227 60.3035 42.2142 60.3035 41.4902C60.3035 40.7662 60.4564 40.1639 60.7623 39.6926C61.059 39.2308 61.4291 39.0092 61.8879 39.0092C62.3865 39.0092 62.7841 39.2557 63.0992 39.7644C63.4234 40.2825 63.5855 40.8848 63.5855 41.5495C63.5855 42.2953 63.4173 42.8976 63.0839 43.3439C62.7535 43.7839 62.3865 43.9993 61.9613 43.9993H61.9674Z" fill="#111111"/>
<path d="M71.4342 43.9182C71.1987 43.8526 71.107 43.7746 71.0733 43.7216C71.0488 43.6841 70.9938 43.5405 70.9938 43.0256L71.0335 40.8068C71.0335 40.1233 70.9571 39.6459 70.795 39.3494C70.6329 39.0529 70.4004 38.8376 70.1037 38.7159C69.4399 38.4444 68.6875 38.4818 68.0849 38.8813C67.828 39.0529 67.5863 39.2901 67.363 39.5897C67.3325 39.1434 67.2743 38.8158 67.1856 38.5973L67.155 38.5193H67.0725C66.5494 38.5349 66.2588 38.5411 66.2068 38.5411L65.6838 38.5349C65.4024 38.5349 65.3718 38.6972 65.3718 38.7689C65.3718 38.9718 65.6318 39.0311 65.7144 39.0529C65.8673 39.0904 65.9835 39.184 66.0692 39.3432C66.1334 39.4586 66.2099 39.7957 66.2099 40.735C66.2099 41.562 66.1977 42.2642 66.1762 42.8197C66.1457 43.5624 66.0784 43.7122 66.06 43.7403C66.0111 43.8121 65.8979 43.8651 65.7388 43.8994C65.6287 43.9213 65.3351 43.9775 65.3351 44.1897C65.3351 44.3395 65.4697 44.4175 65.7419 44.4175L66.2527 44.405C66.9195 44.405 67.3172 44.4081 67.4334 44.4175L67.776 44.4456C68.0237 44.4456 68.036 44.2677 68.036 44.2302C68.036 44.1772 68.0176 44.0055 67.7882 43.9837C67.5313 43.9556 67.3722 43.8776 67.3172 43.759C67.2713 43.6623 67.2162 43.397 67.2162 42.6886C67.2162 41.4216 67.3783 40.5103 67.6995 39.9767C68.0115 39.4555 68.3908 39.2027 68.8527 39.2027C69.1555 39.2027 69.4032 39.3369 69.6082 39.6147C69.8192 39.8987 69.9263 40.4947 69.9263 41.3872C69.9263 41.7212 69.9171 42.1643 69.8988 42.698C69.8743 43.3876 69.8468 43.5686 69.8315 43.6154C69.81 43.6872 69.7703 43.7403 69.7183 43.784C69.6846 43.8089 69.5868 43.862 69.3023 43.9244C69.1004 43.965 69.0759 44.096 69.0759 44.1491C69.0759 44.2365 69.1218 44.3831 69.443 44.3831C69.8376 44.3519 70.2138 44.3363 70.5564 44.3363C70.9357 44.3363 71.2232 44.3551 71.419 44.3956C71.4526 44.4019 71.4893 44.4019 71.526 44.4019C71.6637 44.4019 71.7554 44.3145 71.7554 44.1803C71.7554 44.0087 71.5352 43.9462 71.4404 43.9182H71.4342Z" fill="#111111"/>
<path d="M93.7478 43.9618C93.6653 43.9587 93.5796 43.9212 93.4909 43.8494C93.4053 43.7808 93.3625 43.709 93.3533 43.6216C93.341 43.5093 93.3349 43.1722 93.3349 42.623L93.3747 40.8754C93.3747 39.9922 93.2156 39.3899 92.8883 39.0342C92.5641 38.6815 92.0931 38.5005 91.4935 38.5005C90.8359 38.5005 90.2517 38.7689 89.7501 39.2963C89.7439 39.081 89.7409 38.8375 89.7409 38.5629L89.7623 35.1582L89.6338 35.1676C89.1536 35.1988 88.6978 35.2144 88.2788 35.2144C87.8903 35.2144 87.8567 35.2237 87.8353 35.2269C87.7527 35.2456 87.7007 35.3174 87.7007 35.4079C87.7007 35.4952 87.7496 35.6076 87.979 35.6575C88.1442 35.6887 88.2819 35.8073 88.4011 36.0164C88.5266 36.238 88.6 36.6062 88.6152 37.1149C88.6305 37.6454 88.6367 38.7783 88.6367 40.4822C88.6367 41.434 88.6122 42.2267 88.5602 42.8352C88.4898 43.6778 88.4134 43.812 88.3981 43.8307C88.3614 43.8775 88.2727 43.9368 88.0555 43.9649C87.82 43.993 87.7955 44.1366 87.7955 44.199C87.7955 44.2676 87.8261 44.4268 88.1167 44.4268C88.3185 44.4143 88.5633 44.4081 88.8355 44.4081L90.1416 44.433C90.3435 44.433 90.4169 44.3144 90.4169 44.2052C90.4169 44.1334 90.3832 44.0024 90.1599 43.968C89.9428 43.9243 89.8143 43.8401 89.7715 43.7184C89.7348 43.6123 89.695 43.3501 89.695 42.6917C89.695 41.8959 89.7195 41.2124 89.7715 40.6632C89.8204 40.1389 89.9764 39.7363 90.2364 39.4711C90.4964 39.2058 90.79 39.0747 91.1296 39.0747C91.4691 39.0747 91.7352 39.2245 91.9432 39.5335C92.1573 39.8518 92.2674 40.5945 92.2674 41.7398C92.2674 43.0817 92.2246 43.5186 92.1879 43.6528C92.1726 43.709 92.1267 43.8807 91.7444 43.9306C91.518 43.9618 91.4935 44.1022 91.4935 44.1646C91.4935 44.2208 91.5119 44.3519 91.723 44.3987H93.6316C93.965 44.3987 94.0354 44.2676 94.0354 44.1584C94.0354 44.0835 93.9987 43.9587 93.7478 43.9587V43.9618Z" fill="#111111"/>
<path d="M99.8011 43.8557L99.6849 43.8713C99.6145 43.8838 99.5626 43.89 99.5228 43.89C99.4218 43.89 99.2811 43.8557 99.1955 43.553C99.119 43.2815 99.0793 42.8102 99.0793 42.1549L99.119 40.4104C99.119 39.8612 99.0793 39.496 98.9967 39.2963C98.911 39.0841 98.703 38.8968 98.3819 38.7408C98.0729 38.591 97.6569 38.5161 97.1461 38.5161C96.5007 38.5161 95.9838 38.6472 95.6076 38.9031C95.2161 39.1683 95.0203 39.4929 95.0203 39.8643C95.0203 40.089 95.0937 40.2668 95.2344 40.3854C95.369 40.5009 95.5005 40.5602 95.6229 40.5602C95.8462 40.5602 96.1367 40.4385 96.2499 39.8549C96.3356 39.4274 96.4487 39.2495 96.5283 39.1746C96.6445 39.0716 96.8219 39.0186 97.0635 39.0186C97.3602 39.0186 97.5835 39.1122 97.7395 39.3025C97.9016 39.496 97.9812 39.7769 97.9812 40.1389C97.9812 40.3573 97.9231 40.5259 97.8068 40.6569C97.7242 40.7506 97.4489 40.9222 96.617 41.2031C96.1245 41.3747 95.788 41.512 95.5862 41.6275C95.3782 41.7461 95.1916 41.9427 95.0325 42.2111C94.8735 42.4794 94.7939 42.7728 94.7939 43.0849C94.7939 43.503 94.9316 43.8494 95.2038 44.1085C95.473 44.3675 95.8431 44.4986 96.308 44.4986C96.6965 44.4986 97.0483 44.4143 97.3572 44.252C97.5774 44.1334 97.7793 43.9712 97.9567 43.7683C97.9812 43.9899 98.0271 44.1428 98.0974 44.2427C98.2045 44.3925 98.4033 44.4674 98.6878 44.4674C99.688 44.4674 100.079 44.3612 100.079 44.0929C100.079 43.9805 100.015 43.8744 99.7981 43.8619L99.8011 43.8557ZM97.9873 42.055C97.9873 42.5107 97.9383 42.8539 97.8405 43.0786C97.7456 43.2971 97.5958 43.4812 97.3939 43.6248C97.192 43.7683 96.984 43.837 96.7577 43.837C96.5527 43.837 96.3845 43.7558 96.2438 43.5904C96.1 43.4188 96.0297 43.2128 96.0297 42.9663C96.0297 42.6885 96.1153 42.4576 96.2927 42.261C96.4793 42.0581 96.7974 41.8366 97.2348 41.6056C97.5499 41.4371 97.7885 41.2842 97.9536 41.1469C97.972 41.4746 97.9812 41.7804 97.9812 42.0581L97.9873 42.055Z" fill="#111111"/>
<path d="M106.668 43.9182C106.433 43.8526 106.341 43.7746 106.307 43.7216C106.283 43.6841 106.228 43.5405 106.228 43.0256L106.267 40.8068C106.267 40.1233 106.191 39.6459 106.029 39.3494C105.867 39.0529 105.634 38.8376 105.338 38.7159C104.674 38.4444 103.921 38.4818 103.319 38.8813C103.062 39.0529 102.82 39.2901 102.597 39.5897C102.566 39.1434 102.508 38.8158 102.42 38.5973L102.389 38.5193H102.306C101.783 38.5349 101.493 38.5411 101.441 38.5411L100.918 38.5349C100.636 38.5349 100.606 38.6972 100.606 38.7689C100.606 38.9718 100.866 39.0311 100.948 39.0529C101.101 39.0904 101.217 39.184 101.303 39.3432C101.367 39.4586 101.444 39.7957 101.444 40.735C101.444 41.562 101.432 42.2642 101.41 42.8197C101.38 43.5624 101.312 43.7122 101.294 43.7403C101.245 43.8121 101.132 43.8651 100.973 43.8994C100.863 43.9213 100.569 43.9775 100.569 44.1897C100.569 44.3395 100.704 44.4175 100.976 44.4175L101.487 44.405C102.153 44.405 102.551 44.4081 102.667 44.4175L103.01 44.4456C103.258 44.4456 103.27 44.2677 103.27 44.2302C103.27 44.1772 103.251 44.0055 103.022 43.9837C102.765 43.9556 102.606 43.8776 102.551 43.759C102.505 43.6623 102.45 43.397 102.45 42.6886C102.45 41.4216 102.612 40.5103 102.933 39.9767C103.245 39.4555 103.625 39.2027 104.087 39.2027C104.389 39.2027 104.637 39.3369 104.842 39.6147C105.053 39.8987 105.16 40.4947 105.16 41.3872C105.16 41.7212 105.151 42.1643 105.133 42.698C105.108 43.3876 105.081 43.5686 105.065 43.6154C105.044 43.6872 105.004 43.7403 104.952 43.784C104.919 43.8089 104.821 43.862 104.536 43.9244C104.334 43.965 104.31 44.096 104.31 44.1491C104.31 44.2365 104.356 44.3831 104.677 44.3831C105.071 44.3519 105.448 44.3363 105.79 44.3363C106.17 44.3363 106.457 44.3551 106.653 44.3956C106.686 44.4019 106.723 44.4019 106.76 44.4019C106.898 44.4019 106.989 44.3145 106.989 44.1803C106.989 44.0087 106.769 43.9462 106.674 43.9182H106.668Z" fill="#111111"/>
<path d="M53.3753 38.797C53.3753 38.6847 53.3019 38.563 53.1 38.563C53.0602 38.563 52.9929 38.5661 52.9104 38.5755C52.7177 38.5942 52.3323 38.6004 51.7694 38.6004C51.589 38.6004 51.4513 38.6004 51.3718 38.5942C51.1699 38.5817 51.0506 38.5755 51.017 38.5755C50.7723 38.5755 50.7539 38.7471 50.7539 38.8002C50.7539 38.8657 50.7815 39.0217 51.0476 39.0529C51.5492 39.0966 51.6134 39.3369 51.6134 39.5429C51.6134 39.805 51.4422 40.217 51.2678 40.6164C51.0782 41.0471 50.7539 41.846 50.3502 42.8665L50.3349 42.9071L50.3165 42.8665C49.4478 40.7818 49.0104 39.6396 49.0104 39.4711C49.0104 39.2745 49.0563 39.1778 49.3347 39.1029C49.5029 39.0592 49.7109 39.0061 49.7109 38.8314C49.7109 38.7596 49.6803 38.588 49.4111 38.588H49.405C49.3683 38.588 49.3163 38.588 49.2368 38.5911C49.0533 38.6067 48.677 38.6129 48.0867 38.6129C47.8909 38.6129 47.7411 38.6067 47.6034 38.6036H47.5667C47.4811 38.6004 47.3924 38.5973 47.2945 38.5942C47.2211 38.5942 47.1568 38.5942 47.1109 38.5942C47.0192 38.5942 46.851 38.5942 46.851 38.8002C46.851 38.8813 46.8907 39.0186 47.1629 39.0529C47.27 39.0685 47.3434 39.1216 47.478 39.2776C47.5636 39.3744 47.7563 39.7114 48.1968 40.7662C48.5608 41.6307 48.8911 42.4389 49.1817 43.1692C49.4907 43.9431 49.5824 44.2552 49.5824 44.5142C49.5824 44.7732 49.3989 45.3381 49.1389 45.8811L48.7107 46.7268C48.6495 46.8142 48.4629 46.861 48.31 46.861C48.3008 46.861 48.2916 46.861 48.2825 46.861C48.258 46.861 48.2335 46.861 48.209 46.861C48.1295 46.861 48.0561 46.8673 47.9919 46.8829C47.8083 46.9234 47.5392 47.0982 47.5483 47.4009C47.5575 47.7723 47.7808 47.9751 48.1723 47.9751C48.6312 47.9751 48.9615 47.7223 49.1573 47.2261L49.6834 46.084C49.7078 46.0278 49.7384 45.9654 49.7384 45.956C49.9067 45.5597 50.1147 45.0291 50.3318 44.4674C50.5368 43.9369 50.76 43.3658 51.0109 42.7385C51.5186 41.4746 51.9438 40.5915 52.1946 40.0672L52.2435 39.9642C52.2864 39.8768 52.3231 39.7988 52.3537 39.7333C52.528 39.3588 52.7849 39.131 53.1153 39.0561C53.3447 39.003 53.3783 38.8719 53.3783 38.8002L53.3753 38.797Z" fill="#111111"/>
<path d="M87.2542 41.8865C87.0768 41.8865 86.9789 42.0862 86.9453 42.1549C86.7067 42.6261 86.3488 43.0474 85.8808 43.4063C85.4679 43.7246 84.9815 43.8713 84.3545 43.8713C83.4583 43.8713 82.7364 43.4687 82.1277 42.7666C81.4609 41.9957 81.1244 40.9784 81.1244 39.7394C81.1244 39.0092 81.1795 38.2946 81.4395 37.6642C81.623 37.2179 81.8861 36.6811 82.3816 36.291C82.8098 35.954 83.4124 35.7387 83.9171 35.7387C84.5166 35.7387 85.3884 35.9228 85.8961 36.3285C86.2815 36.6343 86.5752 36.962 86.8535 37.6486L86.8994 37.7609C86.9544 37.9045 87.0034 38.0386 87.141 38.0386C87.2481 38.0386 87.3246 37.9669 87.349 37.8982C87.3704 37.8358 87.3949 37.608 87.401 37.452C87.401 37.4457 87.4408 37.0525 87.2756 36.7186C87.1441 36.4502 86.8535 36.2193 86.5599 36.0102H86.5537C86.1622 35.7636 85.682 35.4984 85.0794 35.3579C84.642 35.255 84.226 35.2019 83.8376 35.2019C83.0943 35.2019 82.3632 35.4079 81.6628 35.8104C81.0174 36.1849 80.5127 36.6031 80.0814 37.4207C79.696 38.1479 79.5002 38.978 79.5002 39.883C79.5002 40.788 79.7021 41.6244 80.0998 42.3141C80.5341 43.0661 81.0694 43.631 81.6934 43.9899C82.3846 44.3893 83.0668 44.6265 83.8223 44.6265C84.4616 44.6265 85.0702 44.483 85.63 44.2021C86.1867 43.9212 86.6455 43.5499 86.9881 43.0974C87.453 42.4888 87.5142 42.286 87.5142 42.1674C87.5142 41.9895 87.4163 41.8865 87.2511 41.8865H87.2542Z" fill="#111111"/>
<path d="M77.1144 44.0493C76.784 43.9994 76.1509 43.9557 75.1751 43.9182C74.3859 43.8933 74.0617 43.8184 73.9302 43.7622C73.7161 43.6717 73.6916 43.5469 73.6916 43.4626C73.6916 43.3784 73.7467 43.2785 73.8537 43.1755C73.973 43.0663 74.1045 42.9914 74.2452 42.9539C74.4012 42.9134 74.701 42.8759 75.1353 42.8416C75.8511 42.7854 76.4108 42.5451 76.7993 42.1269C77.1847 41.7056 77.3805 41.1907 77.3805 40.5978C77.3805 40.4854 77.3713 40.3762 77.3499 40.2483C77.3315 40.1016 77.2979 39.9768 77.2704 39.8863L77.2642 39.8644C77.2551 39.8238 77.2428 39.7833 77.2367 39.7552V39.7396L77.2489 39.7333C77.2734 39.724 77.3162 39.7177 77.3835 39.7084L77.4355 39.7021C77.5334 39.6928 77.5946 39.6865 77.8821 39.6865L77.9708 39.6803C78.2063 39.6803 78.3715 39.5555 78.3715 39.3776C78.3715 39.1997 78.2889 39 77.8974 39L76.9492 38.9375C76.6372 38.8939 76.4812 38.8283 76.316 38.7628C76.2273 38.7253 76.1417 38.691 76.0346 38.6598C76.0285 38.6598 76.0224 38.6567 76.0193 38.6567C75.7502 38.5599 75.4657 38.51 75.1629 38.51C74.4471 38.51 73.8445 38.7472 73.3766 39.2184C72.9086 39.6896 72.67 40.2483 72.67 40.8786C72.67 41.3218 72.8046 41.7119 73.0737 42.0427C73.2634 42.2767 73.502 42.4609 73.7803 42.5951L73.817 42.6138L73.7773 42.6294C73.4714 42.7542 73.2236 42.9009 73.0462 43.0663C72.7923 43.3035 72.6639 43.5812 72.6639 43.8964C72.6639 44.2116 72.7923 44.455 73.0431 44.6298C73.2053 44.7421 73.4377 44.8357 73.7558 44.9138L73.8109 44.9262L73.7589 44.9481C72.7373 45.3725 72.2173 45.9124 72.2173 46.5615C72.2173 47.0421 72.4497 47.4041 72.9086 47.6444C73.349 47.8753 73.9822 47.9877 74.8448 47.9877C75.9918 47.9877 76.8758 47.7692 77.4692 47.3386C78.0748 46.9017 78.3837 46.3212 78.3837 45.6159C78.3837 45.1821 78.2583 44.8233 78.0075 44.5455C77.7598 44.2709 77.4569 44.1024 77.1082 44.0462L77.1144 44.0493ZM74.2544 39.4244C74.4624 39.1373 74.7255 39 75.0558 39C75.3495 39 75.5942 39.1435 75.8022 39.44C76.0163 39.7458 76.1233 40.189 76.1233 40.7569C76.1233 41.3249 76.0163 41.7119 75.8052 41.9709L75.7991 41.9771C75.5911 42.2268 75.3678 42.3485 75.1139 42.3485C74.8325 42.3485 74.5695 42.2237 74.3125 41.9709C74.0587 41.7212 73.9302 41.2843 73.9302 40.6696C73.9302 40.1359 74.0372 39.7177 74.2514 39.4244H74.2544ZM76.8758 47.0046C76.4934 47.3292 75.8939 47.4946 75.0895 47.4946C74.5603 47.4946 74.1168 47.3947 73.7681 47.2013C73.4377 47.0171 73.2787 46.7612 73.2787 46.4179C73.2787 46.1558 73.3582 45.9374 73.5234 45.7501C73.6947 45.5566 73.9638 45.385 74.3278 45.2446C74.6949 45.101 75.1017 45.0292 75.533 45.0292C76.1845 45.0292 76.68 45.1135 76.9981 45.2789C77.2948 45.4349 77.4386 45.6596 77.4386 45.9654C77.4386 46.3399 77.2551 46.6801 76.8727 47.0046H76.8758Z" fill="#111111"/>
<path d="M113.254 44.5611C113.006 44.2865 112.703 44.1179 112.354 44.0618C112.024 44.0118 111.391 43.9681 110.415 43.9307C109.626 43.9057 109.302 43.8308 109.17 43.7747C108.956 43.6842 108.932 43.5593 108.932 43.4751C108.932 43.3908 108.987 43.2909 109.094 43.188C109.213 43.0787 109.345 43.0038 109.485 42.9664C109.641 42.9258 109.941 42.8884 110.375 42.854C111.091 42.7979 111.651 42.5576 112.039 42.1394C112.425 41.7181 112.62 41.2032 112.62 40.6102C112.62 40.4979 112.611 40.3887 112.59 40.2607C112.572 40.114 112.538 39.9892 112.51 39.8987L112.504 39.8769C112.495 39.8363 112.483 39.7957 112.477 39.7676V39.752L112.489 39.7458C112.513 39.7364 112.556 39.7302 112.624 39.7208L112.676 39.7146C112.773 39.7052 112.835 39.699 113.122 39.699L113.211 39.6927C113.446 39.6927 113.611 39.5679 113.611 39.39C113.611 39.2121 113.529 39.0124 113.137 39.0124L112.189 38.95C111.877 38.9063 111.721 38.8408 111.556 38.7752C111.467 38.7378 111.382 38.7035 111.275 38.6723C111.268 38.6723 111.262 38.6691 111.259 38.6691C110.99 38.5724 110.706 38.5225 110.403 38.5225C109.687 38.5225 109.085 38.7596 108.617 39.2309C108.149 39.7021 107.91 40.2607 107.91 40.8911C107.91 41.3342 108.045 41.7243 108.314 42.0551C108.503 42.2892 108.742 42.4733 109.02 42.6075L109.057 42.6262L109.017 42.6418C108.711 42.7667 108.464 42.9133 108.286 43.0787C108.032 43.3159 107.904 43.5937 107.904 43.9088C107.904 44.224 108.032 44.4675 108.283 44.6422C108.445 44.7546 108.678 44.8482 108.996 44.9262L109.051 44.9387L108.999 44.9605C107.977 45.385 107.457 45.9248 107.457 46.574C107.457 47.0545 107.69 47.4166 108.149 47.6568C108.589 47.8878 109.222 48.0001 110.085 48.0001C111.232 48.0001 112.116 47.7817 112.709 47.351C113.315 46.9141 113.624 46.3337 113.624 45.6284C113.624 45.1946 113.498 44.8357 113.248 44.558L113.254 44.5611ZM109.494 39.4368C109.702 39.1497 109.965 39.0124 110.296 39.0124C110.589 39.0124 110.834 39.156 111.042 39.4524C111.256 39.7583 111.363 40.2014 111.363 40.7694C111.363 41.3374 111.256 41.7243 111.045 41.9834L111.039 41.9896C110.831 42.2393 110.608 42.361 110.354 42.361C110.073 42.361 109.809 42.2361 109.553 41.9834C109.299 41.7337 109.17 41.2968 109.17 40.682C109.17 40.1484 109.277 39.7302 109.491 39.4368H109.494ZM112.116 47.0171C111.733 47.3417 111.134 47.5071 110.329 47.5071C109.8 47.5071 109.357 47.4072 109.008 47.2137C108.678 47.0296 108.519 46.7737 108.519 46.4304C108.519 46.1683 108.598 45.9498 108.763 45.7626C108.935 45.5691 109.204 45.3974 109.568 45.257C109.935 45.1135 110.342 45.0417 110.773 45.0417C111.424 45.0417 111.92 45.1259 112.238 45.2913C112.535 45.4474 112.679 45.6721 112.679 45.9779C112.679 46.3524 112.495 46.6925 112.113 47.0171H112.116Z" fill="#111111"/>
<path d="M48.8698 3.73572C48.2856 3.54223 47.6463 3.42052 47.2823 3.43301C47.0162 3.44237 46.7929 3.51102 46.7195 3.60153C46.7042 3.62025 46.6981 3.63897 46.7012 3.65458C46.7073 3.67954 46.8449 3.74508 46.8877 3.7638L46.9061 3.77317C46.9336 3.78565 46.9612 3.79813 46.9856 3.81061L47.1416 3.89487C47.7044 4.19759 48.2336 4.48157 48.2336 5.06827V9.76498H46.8266V9.68072L46.8113 5.60816C46.8113 5.45524 46.8327 5.32729 46.851 5.21494L46.8572 5.17438C46.9153 4.84046 46.9428 4.67506 46.0496 4.39107C45.392 4.18198 45.0525 4.11957 44.661 4.13205C44.4285 4.14141 44.2572 4.19447 44.1899 4.2756C44.1685 4.30057 44.1624 4.32554 44.1685 4.35362C44.1716 4.38171 44.3092 4.44724 44.3765 4.47845C44.401 4.48781 44.4193 4.5003 44.4377 4.50654L44.5723 4.57519C45.1748 4.88727 45.5082 5.05891 45.5082 5.66433V10.8167L45.4562 10.8385C44.0186 11.4158 42.9756 11.7061 41.853 11.8371C41.7429 11.8527 41.6511 11.8278 41.5839 11.7685C41.5013 11.6936 41.4615 11.5719 41.4615 11.3909V7.04682H41.541L43.8718 6.95631C44.196 6.94383 44.3276 6.74098 44.3429 6.55686C44.3551 6.3977 44.2786 6.21046 44.1165 6.17613L44.0859 6.16989C43.7525 6.10123 43.6271 6.07627 43.1346 6.10435C43.0245 6.1106 42.9603 6.15429 42.8716 6.2167C42.7339 6.31344 42.4434 6.44764 42.1773 6.51317C42.1069 6.52877 41.8806 6.59431 41.2505 6.54126L41.226 6.53502C40.6571 6.24479 39.4947 6.24167 39.1674 6.36025C39.0267 6.41019 38.8738 6.51941 38.8677 6.60055C38.8677 6.62864 38.8891 6.65984 38.9411 6.68793C39.0237 6.73786 39.1154 6.77219 39.2133 6.80964L39.2286 6.81588C39.3295 6.85333 39.4274 6.8939 39.5375 6.94695C39.9107 7.13732 40.0851 7.41194 40.0851 7.8114L40.0698 11.1537C40.0637 11.8621 40.2013 12.3552 40.4827 12.6111C40.7672 12.8732 41.1526 12.867 41.4523 12.8358C42.9022 12.5268 44.4713 11.8184 45.3859 11.2567L45.5113 11.1787V14.7738C45.5113 15.0484 45.5847 15.2481 45.704 15.3324C45.7162 15.3417 45.7407 15.3542 45.7682 15.3636C45.7682 15.3636 45.8264 15.3948 46.0191 15.4104C46.1475 15.4229 46.2576 15.3885 46.3188 15.3667C46.328 15.3636 46.3494 15.3542 46.3586 15.348C46.3708 15.3417 46.383 15.3355 46.383 15.3355C46.7837 15.1077 46.8174 13.8219 46.8174 13.4006C46.8327 12.1898 46.8327 11.8715 46.8327 10.3486V10.2643H48.2397V15.6476C48.2397 15.9315 48.3407 16.15 48.4905 16.2218C48.4905 16.2218 48.5272 16.2374 48.5334 16.2405C48.6006 16.2592 48.6496 16.2717 48.7658 16.2779C48.9738 16.2873 49.0992 16.2093 49.0992 16.2093C49.4602 15.9908 49.5642 14.9329 49.5642 14.2776V4.96841C49.5642 4.79365 49.6009 4.65321 49.6315 4.52838C49.6376 4.50966 49.6406 4.49093 49.6467 4.47533C49.7263 4.17574 49.763 4.02282 48.8821 3.73572H48.8698Z" fill="#111111"/>
<path d="M72.6579 11.6343L72.5294 11.628L72.5875 11.5125C72.6028 11.4845 72.6181 11.4564 72.6334 11.4252L72.6395 11.4127C72.7007 11.3066 72.7619 11.1942 72.7313 11.1193C72.7007 11.0476 72.5783 10.9851 72.3856 10.9446C72.1134 10.8853 71.8901 10.8447 71.5139 10.8291C71.5047 10.8291 71.4955 10.8291 71.4864 10.8291C71.2967 10.8291 71.1438 10.9102 71.1316 10.9633C71.1254 10.9914 71.1774 11.0476 71.3059 11.1037C71.4558 11.1693 71.5506 11.2254 71.5781 11.3097C71.6057 11.394 71.5598 11.4751 71.5047 11.575L71.4711 11.6343L71.4374 11.6436C71.2264 11.6935 69.3697 12.1835 69.4706 13.9374C69.5563 15.4977 71.156 16.0782 72.144 16.0782H72.1776C73.4379 16.0626 74.7317 15.2793 74.7715 13.8094C74.8112 12.093 73.0892 11.6499 72.6609 11.6343H72.6579ZM72.1899 15.3573C72.1899 15.3573 72.1685 15.3573 72.1593 15.3573C71.624 15.3573 70.9878 14.989 70.8196 13.9592C70.7614 13.5878 70.8104 13.0511 71.1224 12.6485C71.3487 12.3583 71.6668 12.196 72.0675 12.1679C72.0951 12.1679 72.1226 12.1679 72.1501 12.1679C72.4682 12.1679 72.7527 12.2802 72.9699 12.4925C73.2757 12.792 73.4531 13.282 73.444 13.8063C73.4287 14.5459 73.028 15.3479 72.1899 15.3635V15.3573Z" fill="#111111"/>
<path d="M74.594 3.71684C73.9915 3.51711 73.3185 3.38604 72.9637 3.39853C72.6946 3.40789 72.4743 3.47654 72.4009 3.56705C72.3856 3.58577 72.3795 3.60449 72.3826 3.6201C72.3887 3.64506 72.5233 3.70748 72.5661 3.72932L72.5753 3.73556C72.6059 3.75117 72.6364 3.76365 72.667 3.77925L72.82 3.86351C73.3828 4.16623 73.9119 4.45021 73.9119 5.03691V6.07611L73.8385 6.08548C73.4317 6.13541 73.0494 6.16037 72.6701 6.16037C72.6334 6.16037 72.5967 6.16037 72.5661 6.16037H72.5233C72.3214 6.16662 72.1807 6.16037 71.8748 6.12917C71.7433 6.11668 71.6913 6.15413 71.6852 6.16974C71.6821 6.18222 71.7005 6.25088 71.8656 6.35074C72.0522 6.46309 72.2786 6.55983 72.4621 6.63785L72.6028 6.69714C72.9607 6.84381 73.0585 6.81573 73.2237 6.76892C73.2941 6.75019 73.3767 6.72523 73.4868 6.7065L73.9119 6.65033V9.19997L73.8385 9.20933C73.4378 9.25926 73.0555 9.28111 72.6701 9.28111C72.6273 9.28111 72.5875 9.28111 72.5477 9.28111H72.5171C72.3856 9.28735 72.2694 9.28735 72.0583 9.2655L71.8503 9.24366L71.9237 9.18749L72.303 8.89726C72.5233 8.71626 72.5753 8.54462 72.5416 8.48844C72.511 8.43851 72.3979 8.45099 72.2602 8.51341L72.1501 8.56646C71.1835 9.04393 69.388 9.93022 67.9657 10.2704H67.9535H67.9443C67.6384 10.2517 67.6384 10.0426 67.6384 9.82099V7.92983H67.721L70.1283 7.88302C70.532 7.87054 71.0826 7.85493 71.104 7.61152C71.1254 7.41491 70.9602 7.32753 70.6482 7.23079L70.5718 7.20582L70.581 7.17149L71.0642 5.36147C71.0856 5.27409 71.1285 5.18046 71.1682 5.09308H71.1866L71.1713 5.08684C71.2294 4.96513 71.2875 4.83718 71.26 4.77165C71.2478 4.74356 71.2141 4.7186 71.1591 4.70299C70.9021 4.61561 70.5718 4.57504 70.0977 4.57504C70.012 4.57504 69.9141 4.60937 69.804 4.64994C69.6266 4.71547 69.4094 4.79349 69.1097 4.79349H69.0883C67.7057 4.83094 66.8217 4.8403 66.5312 4.82158C66.3782 4.82158 65.7022 4.77477 65.4759 4.73108C65.3015 4.70299 65.2434 4.73732 65.2373 4.74668C65.2373 4.74668 65.2373 4.80598 65.3872 4.93393C65.5891 5.09933 65.8154 5.20855 66.1305 5.36147L66.158 5.37395C66.4027 5.48942 66.5464 5.45509 66.7606 5.40204L66.7881 5.3958C66.889 5.37083 67.0022 5.34274 67.1429 5.32402C67.773 5.246 69.2657 5.28033 69.7092 5.29281H69.804L69.7 7.13404V7.14341C69.7 7.18397 69.6419 7.26511 69.593 7.30568C69.5196 7.35874 69.4462 7.37434 69.2871 7.37434L67.5008 7.40243H67.4885C67.1704 7.28696 67.0787 7.27136 66.4822 7.24327H66.4486C66.2956 7.23703 66.1366 7.23079 65.9928 7.23079C65.7451 7.23079 65.5768 7.24639 65.4667 7.28384C65.3015 7.34001 65.1884 7.44924 65.1884 7.49605C65.1884 7.51165 65.2159 7.53038 65.2587 7.54598C65.3107 7.5647 65.3749 7.58343 65.4514 7.60215H65.4636C65.6043 7.64272 65.7634 7.68641 65.898 7.75195C65.9255 7.76443 65.95 7.77691 65.9745 7.7894H65.9806C66.1672 7.87678 66.314 7.94543 66.314 8.26687L66.3415 9.98951C66.3507 10.5419 66.4822 10.9195 66.7361 11.1161C67.097 11.397 67.614 11.2628 67.8923 11.191C67.9351 11.1816 67.9718 11.1723 68.0024 11.166C69.3299 10.6886 70.6666 10.0301 71.6668 9.36849L71.7341 9.3248L71.78 9.39345C71.7983 9.41842 71.8259 9.44027 71.8779 9.46835C72.0736 9.58694 72.303 9.68368 72.4896 9.7617C72.5355 9.78043 72.5783 9.79915 72.6181 9.81787C72.9729 9.96455 73.0738 9.93646 73.239 9.88653C73.3094 9.86469 73.392 9.84284 73.5021 9.82412L73.9272 9.76794V10.5918C73.9272 10.882 74.0312 11.1005 74.1872 11.1692C74.1872 11.1692 74.3096 11.2316 74.487 11.2316C74.7409 11.2316 74.8571 11.1535 74.8571 11.1535C75.1905 10.9601 75.3129 10.0675 75.3129 9.28735L75.3404 4.99634C75.3404 4.83094 75.3679 4.69051 75.3924 4.58128L75.4016 4.53447C75.4688 4.22864 75.5147 4.00395 74.6063 3.7106L74.594 3.71684Z" fill="#111111"/>
<path d="M85.9359 11.6997C85.2905 11.6155 85.1008 11.7278 84.9601 11.8152C84.8806 11.862 84.8041 11.9088 84.6879 11.9088L81.6291 11.9369L81.6077 11.9244C81.3691 11.7652 81.0296 11.7434 80.7268 11.7434C80.6136 11.7434 80.5004 11.7465 80.3781 11.7496H80.268C80.2068 11.7559 80.1426 11.7559 80.0814 11.759C79.9009 11.759 79.3779 11.8277 79.3534 12.1241C79.3534 12.1273 79.387 12.1678 79.7021 12.2802L79.7266 12.2895C79.7694 12.3051 79.8091 12.3176 79.8489 12.3332C80.271 12.4924 80.3169 12.8481 80.3597 13.1883V13.2258L80.6381 15.5101C80.6931 16.0063 80.8185 16.2154 81.0602 16.2154H81.5068C81.7331 16.2154 81.8463 16.0687 81.9013 15.713L81.9136 15.6412H81.9839L85.2354 15.5975C85.3639 15.5975 85.4923 15.5975 85.6024 15.5975H85.6116C85.942 15.6038 86.2815 15.61 86.4161 15.4789C86.462 15.4352 86.4834 15.3697 86.4834 15.2823C86.4834 15.0982 86.3243 14.964 85.9787 14.8641L85.8991 14.8392L86.5568 12.4893C86.5813 12.4331 86.6057 12.3863 86.6302 12.3395C86.7005 12.2115 86.7709 12.0773 86.725 11.9837C86.6608 11.8526 86.3947 11.759 85.9328 11.6997H85.9359ZM85.0182 12.5298L84.9448 14.8735L84.8928 14.8922C84.8378 14.911 84.798 14.9297 84.7582 14.9515L84.7491 14.9578C84.6451 15.0077 84.5655 15.0483 84.3759 15.0483L81.9564 15.1076V15.0233L81.8616 12.5049L85.0243 12.4424V12.533L85.0182 12.5298Z" fill="#111111"/>
<path d="M87.8506 9.46217H87.713C87.5692 9.46217 87.4775 9.49962 87.349 9.54955C87.1349 9.63069 86.8413 9.74304 86.153 9.75864C85.8166 9.768 85.2905 9.78673 84.7368 9.80545C83.391 9.85538 81.36 9.92716 79.6501 9.949C79.5706 9.949 79.4911 9.949 79.4115 9.949C78.6285 9.949 77.8454 9.87723 77.5396 9.82729C77.4478 9.81481 77.3652 9.80545 77.2918 9.80545C77.1144 9.80545 77.041 9.84602 77.0349 9.86474C77.0257 9.88659 77.0716 9.98957 77.3622 10.1706C77.7445 10.4109 77.8852 10.4951 78.3593 10.6793C78.8548 10.8727 79.0108 10.8197 79.2708 10.7261C79.4972 10.6449 79.7786 10.5451 80.3506 10.5388C80.7268 10.5326 81.1887 10.5107 81.7209 10.4826H81.7362C82.4489 10.4452 83.3359 10.4015 84.2352 10.3921L85.0182 10.3828C86.0337 10.3734 86.7678 10.3641 87.1838 10.3765C87.3857 10.3765 87.5998 10.3921 87.8078 10.4046H87.8292C88.6306 10.4546 89.4596 10.5045 89.4993 10.0551C89.5146 9.89283 89.484 9.77112 89.4045 9.68374C89.1781 9.43096 88.5297 9.44032 87.8445 9.45281L87.8506 9.46217Z" fill="#111111"/>
<path d="M83.1554 8.78176C83.1799 8.78176 83.2044 8.78176 83.2289 8.78176C84.3208 8.75679 86.153 8.42287 86.153 6.46305C86.153 4.77786 84.0975 4.30975 83.8651 4.30975H83.7427L83.7856 4.19428C83.8039 4.14123 83.8284 4.09754 83.8559 4.04448C83.8957 3.96959 83.9293 3.90717 83.911 3.86348C83.8834 3.80107 83.7427 3.70432 83.2258 3.58886C83.0912 3.56077 82.9689 3.54517 82.8618 3.54517C82.6508 3.54517 82.5712 3.60134 82.559 3.62943C82.5437 3.66375 82.5988 3.74801 82.7333 3.83852L82.7578 3.86348C82.7731 3.88845 82.8312 4.00703 82.8312 4.20988V4.28478L82.7578 4.29726C81.1581 4.52508 80.3292 5.33647 80.3689 6.64405C80.4087 7.98597 81.8188 8.788 83.1554 8.788V8.78176ZM83.287 4.82467C83.3115 4.82467 83.3359 4.82467 83.3604 4.82467C83.6877 4.82467 83.9905 4.95574 84.2383 5.19915C84.6022 5.56116 84.7552 6.08856 84.746 6.44745C84.7154 7.27132 84.2444 8.15761 83.2839 8.15761H83.2595C82.2929 8.14201 81.8341 7.33062 81.8188 6.58476C81.8188 5.76401 82.2042 4.86836 83.2839 4.82779L83.287 4.82467Z" fill="#111111"/>
<path d="M99.1008 11.4313C98.4003 11.3627 98.2902 11.4188 98.1831 11.475C98.1067 11.5156 98.0271 11.5593 97.8069 11.5624C97.7824 11.5624 94.7695 11.6529 93.7571 11.6529C93.6745 11.6529 93.6072 11.6529 93.5552 11.6529C93.2249 11.6529 92.3837 11.6061 92.139 11.5624C91.931 11.525 91.8576 11.5655 91.8515 11.5842C91.8393 11.6123 91.876 11.7153 92.0595 11.8495C92.4327 12.1179 92.6743 12.2209 93.0046 12.3613C93.4849 12.5642 93.6898 12.4924 93.9253 12.4081C94.063 12.3613 94.2006 12.3114 94.3933 12.2989L98.2443 12.0898V15.5944C98.2443 15.8846 98.3483 16.1031 98.5043 16.1717C98.5043 16.1717 98.5135 16.178 98.5288 16.1842C98.5288 16.1842 98.5288 16.1842 98.5318 16.1842C98.5716 16.1998 98.6603 16.2248 98.8071 16.2248C98.9478 16.2248 99.0396 16.2061 99.0946 16.1873C99.48 16.0937 99.6422 15.0888 99.6636 14.2213L99.6972 12.3395L99.7095 12.302C99.8257 11.9743 99.9022 11.759 99.8318 11.6467C99.7614 11.5343 99.5565 11.4719 99.0977 11.4282L99.1008 11.4313Z" fill="#111111"/>
<path d="M101.912 7.9143L101.817 7.90181C101.63 7.87373 101.425 7.84564 101.156 7.85813C100.908 7.86437 100.78 7.92678 100.658 7.9892C100.532 8.04849 100.422 8.12027 100.22 8.13899L99.7676 8.16396V8.08282L99.7829 4.94336C99.7829 4.77796 99.8104 4.63753 99.8349 4.5283L99.841 4.49709C99.9083 4.18502 99.9419 4.02586 99.0151 3.72627C98.4401 3.53591 97.8069 3.40796 97.4368 3.40796C97.4184 3.40796 97.4001 3.40796 97.3848 3.40796C97.1187 3.41732 96.8954 3.48598 96.822 3.57648C96.8067 3.5952 96.8006 3.61393 96.8036 3.62953C96.8097 3.6545 96.9443 3.72003 96.9902 3.73876C97.0238 3.75436 97.0575 3.76996 97.0881 3.78557L97.241 3.86983C97.8038 4.17254 98.3361 4.45653 98.3361 5.04322V10.3422C98.3361 10.6356 98.4431 10.8571 98.6022 10.9227C98.6022 10.9227 98.7153 10.9789 98.9203 10.982C99.1436 10.982 99.3026 10.9071 99.3026 10.9071C99.581 10.7729 99.7309 10.2424 99.7553 9.31863L99.7706 8.6664H101.783C102.15 8.6664 102.331 8.47603 102.343 8.29815C102.352 8.13899 102.224 7.95487 101.915 7.9143H101.912Z" fill="#111111"/>
<path d="M93.1881 10.3017C94.1211 10.2923 94.95 9.9709 95.4608 9.42165C95.8982 8.95042 96.1031 8.33564 96.0664 7.5929C95.9839 5.89522 94.3688 5.35846 93.806 5.3054L93.6684 5.29292L93.7418 5.17433C93.8427 5.01205 93.91 4.89347 93.8825 4.81233C93.8641 4.75615 93.7938 4.70622 93.6653 4.65941C93.3258 4.54394 92.8364 4.49089 92.5764 4.47217C92.558 4.47217 92.5427 4.47217 92.5275 4.47217C92.3317 4.47217 92.2155 4.55955 92.2063 4.60948C92.2002 4.63445 92.2399 4.67502 92.3348 4.70934C92.4907 4.77176 92.6345 4.83417 92.6804 4.96524C92.7079 5.04638 92.6896 5.14 92.6284 5.24923L92.61 5.28356L92.5703 5.2898C92.4816 5.30228 90.3863 5.64868 90.3221 7.75518C90.3037 8.38869 90.527 8.96602 90.9705 9.42477C91.5058 9.98338 92.3042 10.3017 93.1545 10.3017H93.1881ZM91.8331 7.78327C91.8209 7.47743 91.8423 6.7191 92.2889 6.24162C92.5244 5.98884 92.8425 5.86089 93.231 5.86089C93.5766 5.86089 93.8672 5.98572 94.1027 6.23226C94.4178 6.56306 94.5921 7.10919 94.5707 7.69276C94.534 8.98163 94.0782 9.63698 93.2157 9.63698C91.9952 9.63698 91.8484 8.21705 91.8331 7.78327Z" fill="#111111"/>
<path d="M61.7044 14.5271C61.6524 14.5271 61.6035 14.5271 61.5546 14.5271H61.5331C61.4291 14.5271 61.3343 14.5271 61.2579 14.5271C61.2456 14.5271 61.2303 14.5271 61.2181 14.5271C60.7929 14.5271 60.5849 14.6488 60.3861 14.7674C60.1995 14.8767 60.0221 14.9796 59.7132 14.9796L57.0215 14.964C56.6972 14.964 56.6972 14.7456 56.6972 14.602V13.2445C56.6972 12.4019 56.6085 12.1835 55.9601 12.146L55.7184 12.1304C55.4034 12.1086 55.1036 12.0898 54.8161 12.0898C54.5469 12.0898 54.3542 12.1086 54.2319 12.1429C54.0728 12.1897 53.9382 12.3052 53.9352 12.3613C53.9352 12.3863 53.9719 12.4269 54.0789 12.4643C54.1004 12.4706 54.1279 12.4799 54.1585 12.4893H54.1707C54.2992 12.533 54.5163 12.6048 54.7182 12.7015C54.9048 12.7951 55.2504 12.973 55.2657 13.6377L55.281 14.2962C55.3055 15.326 55.8622 15.5289 56.8104 15.5289H61.5178C62.1785 15.5289 62.5639 15.4946 62.7199 15.3167C62.8025 15.2199 62.8239 15.0733 62.7964 14.833C62.7628 14.5646 62.2244 14.5271 61.7044 14.5271Z" fill="#111111"/>
<path d="M52.47 5.44252C52.6902 5.61417 52.8921 5.70467 53.1062 5.79829L53.1184 5.80453C53.2347 5.85446 53.3539 5.90751 53.4763 5.97617C53.7455 6.12284 53.8281 6.09164 53.9871 6.03546C54.0942 5.99802 54.2226 5.9512 54.4337 5.93872L57.7066 5.78893L57.6974 5.88567C57.5781 7.17765 57.4925 7.95472 57.3517 8.61007C57.3181 8.75986 57.315 8.85037 57.3426 8.88781C57.3793 8.93775 57.5139 8.94399 57.6882 8.95335H57.7616C58.1837 8.63191 58.6211 7.58959 59.0952 5.77956L59.1167 5.70155C59.1656 5.51118 59.2023 5.37387 59.1442 5.28961C59.0647 5.17414 58.7955 5.09924 58.2938 5.05555C57.5903 4.99314 57.4466 5.0618 57.3089 5.12733C57.2141 5.17414 57.1162 5.21783 56.8899 5.23031H56.8654C56.4097 5.26464 54.8007 5.37699 54.1645 5.36139C53.8342 5.36139 52.9135 5.25528 52.6045 5.19911C52.3904 5.15854 52.3201 5.20223 52.314 5.22407C52.3048 5.24904 52.3293 5.33642 52.4669 5.44565L52.47 5.44252Z" fill="#111111"/>
<path d="M63.5611 8.77555L63.4632 8.75994C63.295 8.73498 63.087 8.70377 62.8025 8.71625C62.5578 8.72249 62.4293 8.80051 62.307 8.87541C62.1816 8.95031 62.0654 9.02208 61.8696 9.02208H61.6432V8.93782L61.6585 4.92456C61.6585 4.75916 61.6861 4.61873 61.7105 4.5095L61.7197 4.46581C61.787 4.15998 61.8176 4.00394 60.9061 3.70748C60.331 3.51711 59.6979 3.38916 59.3247 3.38916C59.3064 3.38916 59.2911 3.38916 59.2727 3.38916C59.0066 3.39852 58.7833 3.46718 58.7099 3.55768C58.6946 3.5764 58.6885 3.59513 58.6915 3.61073C58.6977 3.6357 58.8353 3.70123 58.8781 3.71996L58.8965 3.72932C58.924 3.7418 58.9515 3.75429 58.976 3.76677L59.132 3.85103C59.6948 4.15374 60.224 4.43773 60.224 5.02442V9.4153L57.881 9.88029C57.2845 9.98327 56.3516 10.1143 56.1681 10.1299L56.0671 10.1393L56.0794 10.0363C56.0947 9.9271 56.1069 8.99088 56.1069 8.62887C56.1069 8.51028 56.1252 8.3917 56.1405 8.28559C56.1772 8.04217 56.2109 7.82996 56.0335 7.72386C55.7582 7.55534 55.4676 7.5491 54.9874 7.53661H54.9537C54.81 7.53037 54.6417 7.51477 54.4674 7.52725C54.1309 7.56158 53.8862 7.70826 53.8801 7.78315C53.8801 7.78315 53.8801 7.78627 53.8801 7.79251C53.8801 7.80188 53.8893 7.81436 53.9046 7.82996C53.9046 7.82996 53.9107 7.83621 53.9138 7.83621C53.9199 7.84245 53.9291 7.84869 53.9382 7.85805C53.9382 7.85805 53.9413 7.86117 53.9443 7.86429C54.0025 7.90798 54.1065 7.96728 54.3114 8.03593C54.709 8.17012 54.7824 8.39482 54.7824 8.78803L54.7977 10.3078L54.7243 10.3172C53.8434 10.4171 53.0879 10.4795 52.0999 10.3453C51.8093 10.3016 51.586 10.3609 51.5616 10.4202C51.5616 10.4233 51.5249 10.52 51.846 10.7635C52.21 11.0443 52.5343 11.2347 52.9594 11.425C53.4244 11.6279 53.6232 11.5655 53.926 11.4719C54.082 11.4219 54.2594 11.3658 54.5041 11.3314C55.0639 11.2472 56.5626 10.9757 57.6118 10.6636L60.2209 9.88653V12.4799C60.2209 12.7732 60.328 12.9948 60.487 13.0603C60.487 13.0603 60.588 13.1102 60.8021 13.1134C61.0315 13.1196 61.16 13.0572 61.1814 13.0447C61.5729 12.8543 61.6188 11.8963 61.6188 11.4563L61.6341 9.51828H63.4173C63.7844 9.51828 63.9648 9.32792 63.9771 9.15003C63.9863 8.99088 63.8578 8.80675 63.5489 8.76618L63.5611 8.77555Z" fill="#111111"/>
<path d="M113.159 3.68569C112.562 3.48909 111.972 3.36426 111.623 3.36426C111.605 3.36426 111.59 3.36426 111.571 3.36426C111.253 3.37674 111.064 3.42043 111.006 3.49533C110.987 3.52029 110.981 3.54838 110.987 3.58895C110.993 3.61392 111.128 3.67945 111.174 3.69818L111.183 3.70442C111.217 3.72002 111.244 3.7325 111.275 3.74811L111.431 3.83237C111.997 4.1382 112.535 4.42531 112.535 5.01825V15.7692C112.535 16.0438 112.63 16.256 112.767 16.3371C112.767 16.3371 112.874 16.4027 113.076 16.4089C113.312 16.4152 113.437 16.3465 113.437 16.3465C113.719 16.2092 113.878 15.4446 113.878 14.3118L113.908 4.91526C113.908 4.74674 113.939 4.60943 113.963 4.48772L113.973 4.44403C114.043 4.13508 114.077 3.98216 113.162 3.68569H113.159Z" fill="#111111"/>
<path d="M110.718 4.74672C110.177 4.56572 109.602 4.45337 109.231 4.45337C109.207 4.45337 109.182 4.45337 109.161 4.45337C108.965 4.45961 108.699 4.48146 108.617 4.58132C108.595 4.60629 108.586 4.64061 108.592 4.6843C108.598 4.70927 108.733 4.7748 108.785 4.79977L108.819 4.81537C108.819 4.81537 108.849 4.83098 108.864 4.83722L108.978 4.89963C109.571 5.22107 110.036 5.47385 110.036 6.07927V9.14695L109.953 9.15631C109.877 9.1688 109.855 9.17192 109.779 9.18128H109.736C109.115 9.24994 108.666 9.2593 108.311 9.21561C108.026 9.17504 107.959 9.21561 107.947 9.23121C107.947 9.23121 107.925 9.30299 108.118 9.42782C108.412 9.62754 108.571 9.6962 108.742 9.76798L108.828 9.80543C109.118 9.93026 109.189 9.88657 109.317 9.81167C109.403 9.75862 109.513 9.6962 109.702 9.65563H109.996H110.033V14.8329C110.033 15.1294 110.143 15.3572 110.305 15.4196C110.305 15.4196 110.449 15.4789 110.599 15.4727C110.862 15.4602 110.954 15.404 110.954 15.404C111.336 15.1918 111.382 13.9217 111.382 13.3755L111.409 5.97941C111.409 5.80777 111.44 5.65797 111.464 5.54875L111.474 5.50506C111.541 5.18674 111.574 5.02758 110.718 4.74984V4.74672Z" fill="#111111"/>
<path d="M108.118 10.5982L108.1 10.5888C107.983 10.5326 107.837 10.4608 107.65 10.2954L107.078 9.5652L107.118 9.51214C107.659 8.78189 108.103 7.92057 108.43 7.25273C108.454 7.20592 108.479 7.15911 108.506 7.10606C108.607 6.91569 108.714 6.72221 108.65 6.58802C108.595 6.46943 108.406 6.3602 108.09 6.31027C107.262 6.16984 107.096 6.25722 106.956 6.33524C106.879 6.37581 106.8 6.4195 106.656 6.43198L104.937 6.56617C104.57 6.6005 103.625 6.4944 103.313 6.46319H103.3C103.117 6.43822 103.004 6.51 102.992 6.54121C102.985 6.55993 103.013 6.63795 103.221 6.75966C103.499 6.92506 104.178 7.27146 104.334 7.32763C104.603 7.43374 104.729 7.37756 104.906 7.29954C105.029 7.24337 105.396 7.18096 105.601 7.15599H105.607C105.793 7.14039 106.301 7.09358 106.919 7.00308L107.06 6.98435L107.011 7.11854C106.739 7.8956 105.98 9.51839 105.108 10.5701C103.854 12.0836 103.172 12.6454 102.628 13.0542C102.447 13.1915 102.429 13.2539 102.429 13.2633C102.435 13.2695 102.49 13.3226 102.832 13.335C103.343 13.1478 104.09 12.661 104.824 12.0368C105.751 11.2598 106.111 10.9009 106.671 10.2143L106.748 10.1207L106.775 10.1675L107.931 12.1024C108.17 12.5049 108.378 12.8513 108.76 12.636C108.809 12.611 108.874 12.5549 108.91 12.4332C108.971 12.2272 108.953 11.8059 108.519 10.9789C108.384 10.7199 108.271 10.6668 108.112 10.5919L108.118 10.5982Z" fill="#111111"/>
</g>
<defs>
<clipPath id="clip0_1_4534">
<rect width="114" height="48" fill="white"/>
</clipPath>
</defs>
</svg>
