<svg width="20" height="20" viewBox="0 0 20 20" fill="none" xmlns="http://www.w3.org/2000/svg">
<g clip-path="url(#clip0_1_4523)">
<path d="M5.09073 5.69156C5.09073 8.33618 7.29527 10.4831 10.0003 10.4831C12.7053 10.4831 14.9098 8.33618 14.9098 5.69156C14.9098 3.04694 12.7053 0.9 10.0003 0.9C7.29527 0.9 5.09073 3.04694 5.09073 5.69156ZM5.84964 5.69156C5.84964 3.46255 7.7096 1.6452 10.0003 1.6452C12.2909 1.6452 14.1509 3.46255 14.1509 5.69156C14.1509 7.92058 12.2915 9.73791 10.0003 9.73791C7.70907 9.73791 5.84964 7.92058 5.84964 5.69156Z" fill="#111111" stroke="#111111" stroke-width="0.2"/>
<path d="M18.3411 18.7275C18.3411 18.9356 18.5134 19.1001 18.7205 19.1001H18.7211C18.9283 19.1001 19.1005 18.9356 19.1005 18.7275C19.1005 13.8289 15.0159 9.848 10.0003 9.848C4.98465 9.848 0.9 13.8289 0.9 18.7275C0.9 18.9356 1.07229 19.1001 1.27945 19.1001C1.48662 19.1001 1.65891 18.9356 1.65891 18.7275C1.65891 14.2451 5.39898 10.5937 10.0003 10.5937C14.6016 10.5937 18.3411 14.2451 18.3411 18.7275Z" fill="#111111" stroke="#111111" stroke-width="0.2"/>
<path d="M1.27136 19H18.7243" stroke="#111111" stroke-miterlimit="10" stroke-linecap="round"/>
</g>
<defs>
<clipPath id="clip0_1_4523">
<rect width="20" height="20" fill="white"/>
</clipPath>
</defs>
</svg>
