<svg width="178" height="178" viewBox="0 0 178 178" fill="none" xmlns="http://www.w3.org/2000/svg">
<path d="M172.157 92.0839C171.803 92.0675 171.486 92.1416 171.208 92.3062C170.939 92.4713 170.7 92.6751 170.493 92.9178C170.295 93.1609 170.05 93.4999 169.759 93.9349C169.448 94.3877 169.18 94.7443 168.953 95.0047C168.734 95.2749 168.467 95.5008 168.15 95.6823C167.834 95.8638 167.465 95.9449 167.046 95.9255C166.589 95.9043 166.18 95.7639 165.818 95.5042C165.465 95.2542 165.192 94.9005 164.998 94.4431C164.814 93.9954 164.735 93.4778 164.762 92.8905C164.779 92.5175 164.843 92.1514 164.953 91.7921C165.054 91.4324 165.194 91.1213 165.375 90.8587C165.405 90.8133 165.439 90.7822 165.477 90.7653C165.515 90.7484 165.572 90.7416 165.646 90.7451L167.653 90.6979C167.69 90.6903 167.713 90.7101 167.72 90.7571C167.727 90.8135 167.711 90.8455 167.673 90.8531C166.954 91.044 166.339 91.3284 165.826 91.7065C165.313 92.0845 165.042 92.5951 165.012 93.2384C164.992 93.6766 165.091 94.0456 165.311 94.3455C165.54 94.655 165.924 94.8224 166.465 94.8474C166.875 94.8664 167.239 94.7898 167.555 94.6176C167.871 94.4454 168.138 94.2289 168.356 93.968C168.582 93.7169 168.841 93.3738 169.132 92.9388C169.432 92.5136 169.686 92.175 169.894 91.923C170.111 91.6808 170.368 91.4778 170.665 91.3141C170.972 91.1507 171.321 91.0781 171.712 91.0963C172.188 91.1183 172.588 91.263 172.912 91.5303C173.235 91.8069 173.467 92.154 173.606 92.5715C173.755 92.9989 173.818 93.441 173.797 93.8978C173.768 94.5225 173.635 95.0816 173.397 95.5751C173.335 95.7123 173.247 95.7784 173.135 95.7732L171.384 95.7621C171.347 95.7604 171.325 95.736 171.317 95.6889C171.31 95.6419 171.326 95.6146 171.363 95.607C171.871 95.5277 172.357 95.3307 172.82 95.0158C173.293 94.7013 173.543 94.2364 173.572 93.6211C173.593 93.1549 173.47 92.7848 173.203 92.5108C172.935 92.2461 172.586 92.1038 172.157 92.0839Z" fill="white"/>
<path d="M172.656 103.754C172.585 104.178 172.47 104.608 172.312 105.045C172.163 105.484 171.997 105.826 171.815 106.07C171.765 106.137 171.716 106.176 171.667 106.187C171.626 106.208 171.553 106.22 171.449 106.221L169.752 106.094C169.725 106.089 169.71 106.063 169.709 106.016C169.716 105.97 169.735 105.944 169.764 105.94C170.522 105.82 171.121 105.518 171.562 105.034C172.012 104.551 172.3 103.927 172.428 103.163C172.54 102.491 172.481 101.88 172.251 101.331C172.031 100.783 171.662 100.329 171.145 99.9678C170.626 99.6162 169.999 99.3789 169.262 99.2559C168.406 99.1129 167.591 99.1471 166.818 99.3586C166.045 99.57 165.399 99.9212 164.882 100.412C164.372 100.914 164.061 101.5 163.949 102.172C163.728 103.498 164.329 104.573 165.752 105.398C165.78 105.402 165.791 105.423 165.785 105.46C165.78 105.487 165.772 105.51 165.759 105.526C165.746 105.553 165.729 105.564 165.711 105.561L164.072 105.089C163.965 105.052 163.895 105.016 163.863 104.983C163.838 104.96 163.815 104.904 163.792 104.815C163.602 103.912 163.581 103.019 163.728 102.135C163.914 101.022 164.291 100.129 164.857 99.4568C165.433 98.7865 166.095 98.3341 166.844 98.0996C167.593 97.8651 168.345 97.8109 169.099 97.937C169.956 98.08 170.676 98.4416 171.26 99.0219C171.852 99.6128 172.268 100.326 172.507 101.16C172.754 102.006 172.803 102.871 172.656 103.754Z" fill="white"/>
<path d="M160.413 116.002C160.407 116.02 160.378 116.021 160.324 116.004C160.271 115.987 160.247 115.97 160.252 115.952L160.857 114.015C160.924 113.801 161.429 113.513 162.372 113.153C163.322 112.804 164.589 112.427 166.172 112.021C166.191 111.803 166.23 111.6 166.289 111.412C166.342 111.243 166.419 111.028 166.52 110.766L163.366 109.782C163.099 109.698 162.89 109.662 162.739 109.674C162.598 109.689 162.483 109.76 162.394 109.889C162.302 110.027 162.206 110.256 162.106 110.576C162.098 110.603 162.067 110.608 162.013 110.592C161.96 110.575 161.937 110.553 161.946 110.526C162.032 110.25 162.104 110.033 162.163 109.876L162.477 108.918L162.755 107.978C162.799 107.806 162.866 107.577 162.955 107.292C162.963 107.266 162.994 107.26 163.048 107.277C163.101 107.294 163.124 107.316 163.115 107.342C163.015 107.663 162.964 107.906 162.961 108.071C162.958 108.237 163.011 108.366 163.119 108.458C163.236 108.553 163.428 108.643 163.695 108.726L169.883 110.657C170.15 110.74 170.355 110.775 170.496 110.76C170.637 110.746 170.754 110.67 170.846 110.532C170.944 110.406 171.043 110.183 171.143 109.862C171.149 109.844 171.178 109.844 171.232 109.86C171.285 109.877 171.309 109.894 171.303 109.912L171.081 110.576C170.941 110.963 170.835 111.272 170.763 111.503C170.713 111.664 170.67 111.817 170.634 111.962C170.599 112.107 170.569 112.235 170.544 112.345C170.479 112.647 170.406 112.927 170.326 113.186C170.089 113.943 169.756 114.479 169.325 114.795C168.903 115.113 168.429 115.19 167.904 115.026C167.485 114.895 167.127 114.646 166.831 114.28C166.535 113.914 166.333 113.494 166.227 113.021C164.862 113.416 163.781 113.763 162.983 114.062C162.192 114.373 161.593 114.679 161.186 114.982C160.787 115.288 160.529 115.628 160.413 116.002ZM166.867 110.874C166.726 111.202 166.626 111.459 166.568 111.646C166.39 112.216 166.388 112.661 166.562 112.979C166.743 113.309 167.145 113.572 167.769 113.766C168.473 113.986 169.013 114.008 169.391 113.832C169.768 113.657 170.031 113.333 170.178 112.861C170.25 112.629 170.283 112.444 170.278 112.305C170.269 112.176 170.207 112.063 170.09 111.968C169.982 111.876 169.794 111.788 169.527 111.704L166.867 110.874Z" fill="white"/>
<path d="M157.253 122.142C157.63 121.36 158.146 120.749 158.803 120.309C159.465 119.881 160.188 119.649 160.972 119.612C161.761 119.588 162.525 119.754 163.265 120.11C164.131 120.527 164.766 121.102 165.17 121.834C165.581 122.571 165.779 123.355 165.762 124.186C165.742 125.026 165.559 125.803 165.215 126.518C164.831 127.317 164.304 127.928 163.634 128.351C162.972 128.778 162.258 129.004 161.49 129.028C160.718 129.061 159.987 128.911 159.298 128.579C158.532 128.211 157.927 127.671 157.482 126.96C157.038 126.249 156.794 125.463 156.752 124.604C156.706 123.753 156.873 122.932 157.253 122.142ZM157.318 122.717C157.059 123.255 156.965 123.806 157.036 124.368C157.107 124.93 157.349 125.461 157.762 125.96C158.178 126.471 158.757 126.905 159.497 127.261C160.279 127.638 161.044 127.835 161.791 127.853C162.535 127.879 163.202 127.719 163.794 127.372C164.382 127.033 164.838 126.527 165.161 125.855C165.582 124.98 165.612 124.155 165.249 123.38C164.895 122.609 164.197 121.972 163.154 121.47C162.355 121.086 161.565 120.877 160.784 120.842C160.003 120.808 159.308 120.95 158.699 121.268C158.086 121.595 157.626 122.078 157.318 122.717Z" fill="white"/>
<path d="M154.416 130.064C154.198 129.92 154.025 129.835 153.898 129.807C153.774 129.792 153.653 129.831 153.538 129.922C153.429 130.019 153.293 130.192 153.129 130.441L152.476 131.436C152.153 131.927 152.031 132.428 152.109 132.937C152.19 133.459 152.445 133.939 152.872 134.376C152.896 134.392 152.891 134.416 152.857 134.45C152.826 134.497 152.799 134.513 152.776 134.497C152.136 133.976 151.589 133.567 151.137 133.27C151.074 133.229 151.038 133.182 151.027 133.131C151.019 133.092 151.036 133.041 151.077 132.979L154.659 127.527C154.67 127.511 154.698 127.519 154.745 127.549C154.792 127.58 154.81 127.603 154.8 127.619C154.615 127.9 154.501 128.115 154.458 128.266C154.41 128.424 154.425 128.562 154.504 128.681C154.59 128.805 154.75 128.943 154.984 129.097L160.401 132.657C160.636 132.81 160.822 132.9 160.962 132.925C161.102 132.95 161.235 132.909 161.362 132.802C161.49 132.708 161.647 132.52 161.832 132.239C161.842 132.224 161.87 132.231 161.917 132.262C161.964 132.293 161.982 132.316 161.972 132.332L161.576 132.909C161.335 133.242 161.145 133.514 161.007 133.724C160.868 133.935 160.694 134.217 160.484 134.57L160.111 135.163C160.101 135.179 160.073 135.171 160.026 135.14C159.979 135.11 159.961 135.086 159.971 135.071C160.15 134.798 160.26 134.58 160.301 134.416C160.349 134.258 160.33 134.117 160.243 133.993C160.165 133.875 160.009 133.739 159.775 133.585L154.416 130.064Z" fill="white"/>
<path d="M149.423 137.09C149.221 136.923 149.059 136.819 148.936 136.778C148.814 136.75 148.69 136.775 148.565 136.853C148.447 136.937 148.293 137.094 148.103 137.324L147.344 138.242C146.97 138.695 146.794 139.179 146.816 139.694C146.839 140.222 147.04 140.727 147.417 141.208C147.438 141.226 147.431 141.25 147.394 141.28C147.358 141.323 147.329 141.336 147.308 141.318C146.728 140.73 146.23 140.263 145.813 139.918C145.755 139.871 145.724 139.821 145.719 139.768C145.715 139.729 145.737 139.68 145.785 139.622L149.942 134.595C149.954 134.58 149.981 134.591 150.025 134.626C150.068 134.662 150.083 134.687 150.071 134.702C149.857 134.961 149.721 135.162 149.662 135.307C149.596 135.459 149.596 135.598 149.661 135.725C149.734 135.857 149.878 136.013 150.093 136.191L155.089 140.321C155.305 140.5 155.481 140.609 155.617 140.649C155.754 140.689 155.89 140.663 156.027 140.571C156.166 140.491 156.342 140.322 156.556 140.063C156.568 140.049 156.595 140.059 156.639 140.095C156.682 140.131 156.697 140.156 156.686 140.17L156.229 140.701C155.953 141.005 155.734 141.255 155.574 141.449C155.413 141.643 155.209 141.904 154.962 142.233L154.527 142.781C154.515 142.796 154.487 142.785 154.444 142.749C154.401 142.714 154.385 142.689 154.397 142.674C154.605 142.422 154.738 142.218 154.796 142.06C154.861 141.908 154.858 141.765 154.786 141.633C154.721 141.507 154.58 141.354 154.365 141.176L149.423 137.09Z" fill="white"/>
<path d="M138.153 146.922C138.368 146.744 138.625 146.549 138.924 146.339C139.038 146.257 139.177 146.154 139.341 146.031C139.505 145.907 139.684 145.765 139.878 145.604L140.625 144.969C140.756 144.849 140.94 144.691 141.177 144.494C141.191 144.482 141.216 144.498 141.252 144.541C141.288 144.584 141.298 144.612 141.284 144.624C141.025 144.838 140.849 145.013 140.757 145.15C140.664 145.288 140.638 145.424 140.678 145.561C140.724 145.704 140.836 145.884 141.015 146.1L145.145 151.095C145.324 151.311 145.476 151.452 145.602 151.517C145.729 151.582 145.868 151.582 146.02 151.516C146.171 151.464 146.372 151.334 146.624 151.126C146.645 151.108 146.674 151.121 146.71 151.164C146.745 151.207 146.753 151.238 146.731 151.256L146.183 151.691C145.854 151.938 145.596 152.139 145.409 152.294C145.136 152.52 144.868 152.76 144.605 153.013C144.272 153.313 144.048 153.51 143.933 153.606C143.192 154.218 142.415 154.618 141.601 154.807C140.788 154.995 140.018 154.971 139.291 154.737C138.564 154.502 137.945 154.075 137.434 153.457C136.857 152.759 136.511 152.004 136.395 151.191C136.279 150.391 136.376 149.614 136.686 148.861C137.002 148.116 137.491 147.469 138.153 146.922ZM138.421 147.027C137.882 147.473 137.505 147.984 137.291 148.561C137.076 149.15 137.044 149.77 137.194 150.421C137.344 151.085 137.689 151.744 138.23 152.399C138.747 153.024 139.326 153.497 139.965 153.816C140.603 154.148 141.246 154.289 141.894 154.238C142.541 154.199 143.134 153.957 143.673 153.511C143.982 153.256 144.205 153.041 144.341 152.869C144.476 152.696 144.539 152.523 144.529 152.35C144.525 152.183 144.437 151.996 144.264 151.787L140.25 146.932C139.994 146.623 139.737 146.466 139.479 146.461C139.22 146.47 138.867 146.658 138.421 147.027Z" fill="white"/>
<path d="M128.186 153.95C128.926 153.498 129.692 153.265 130.483 153.252C131.27 153.253 132.003 153.45 132.682 153.845C133.358 154.253 133.909 154.807 134.337 155.508C134.839 156.328 135.06 157.156 135.001 157.99C134.946 158.833 134.687 159.598 134.221 160.287C133.748 160.981 133.173 161.534 132.496 161.948C131.739 162.41 130.965 162.637 130.173 162.629C129.385 162.628 128.662 162.43 128.004 162.033C127.339 161.642 126.806 161.119 126.407 160.466C125.965 159.741 125.75 158.959 125.762 158.121C125.775 157.282 125.997 156.49 126.428 155.746C126.851 155.006 127.437 154.407 128.186 153.95ZM127.928 154.468C127.418 154.78 127.041 155.191 126.795 155.702C126.549 156.213 126.464 156.79 126.54 157.433C126.612 158.088 126.862 158.767 127.29 159.468C127.743 160.208 128.278 160.789 128.896 161.21C129.506 161.636 130.154 161.864 130.839 161.893C131.516 161.928 132.174 161.751 132.811 161.362C133.639 160.856 134.112 160.179 134.228 159.331C134.35 158.492 134.109 157.578 133.506 156.59C133.043 155.833 132.494 155.229 131.856 154.776C131.219 154.323 130.558 154.065 129.874 154.002C129.182 153.943 128.533 154.099 127.928 154.468Z" fill="white"/>
<path d="M114.241 170.247C114.224 170.254 114.204 170.231 114.183 170.18C114.162 170.128 114.161 170.098 114.178 170.091C114.801 169.839 115.108 169.256 115.1 168.342L115.006 160.51C115.001 160.472 115.042 160.435 115.128 160.4C115.215 160.365 115.269 160.363 115.292 160.394L118.451 163.343L118.393 159.137C118.387 159.099 118.428 159.062 118.514 159.027C118.601 158.992 118.655 158.99 118.678 159.021L124.78 164.72C125.092 165.016 125.346 165.195 125.542 165.257C125.733 165.331 125.958 165.315 126.218 165.21C126.244 165.199 126.267 165.22 126.288 165.272C126.309 165.324 126.307 165.355 126.281 165.365L125.874 165.515C125.642 165.589 125.426 165.667 125.227 165.747C124.838 165.905 124.457 166.07 124.083 166.241C123.966 166.299 123.803 166.37 123.595 166.454C123.569 166.465 123.546 166.444 123.525 166.392C123.504 166.34 123.506 166.309 123.532 166.298C123.783 166.197 123.954 166.097 124.046 166C124.137 165.902 124.153 165.78 124.093 165.633C124.044 165.512 123.905 165.342 123.675 165.123L118.763 160.573L118.791 163.659L121.394 166.093C121.671 166.353 121.917 166.525 122.132 166.609C122.339 166.697 122.55 166.697 122.767 166.609C122.793 166.598 122.816 166.619 122.837 166.671C122.858 166.723 122.856 166.754 122.83 166.765L122.422 166.915C122.208 166.981 122.014 167.05 121.841 167.12C121.512 167.253 121.213 167.385 120.943 167.514C120.86 167.558 120.745 167.61 120.598 167.669C120.572 167.68 120.549 167.659 120.528 167.607C120.507 167.555 120.509 167.524 120.535 167.514C120.682 167.454 120.783 167.393 120.838 167.33C120.889 167.28 120.898 167.216 120.866 167.138C120.838 167.069 120.772 166.98 120.667 166.871C120.563 166.762 120.437 166.637 120.289 166.496L118.738 165.055L118.754 166.921C118.763 167.291 118.8 167.557 118.867 167.722C118.976 167.99 119.19 168.059 119.51 167.929C119.528 167.922 119.547 167.945 119.568 167.997C119.589 168.048 119.591 168.078 119.573 168.085L119.309 168.177C119.146 168.223 118.943 168.295 118.701 168.393C118.537 168.46 118.354 168.544 118.154 168.645L117.627 168.874C117.61 168.881 117.591 168.859 117.57 168.807C117.549 168.755 117.547 168.725 117.564 168.718C117.858 168.599 118.077 168.405 118.219 168.135C118.362 167.866 118.429 167.486 118.422 166.996L118.403 164.752L115.377 161.946L115.438 168.206C115.441 168.436 115.473 168.629 115.537 168.785C115.712 169.217 116.102 169.311 116.708 169.065C116.734 169.055 116.757 169.076 116.778 169.127C116.799 169.179 116.797 169.211 116.771 169.221L116.208 169.434C115.889 169.543 115.613 169.645 115.38 169.74C115.207 169.81 115.011 169.899 114.794 170.008L114.241 170.247Z" fill="white"/>
<path d="M102.428 172.875C102.4 172.882 102.38 172.857 102.368 172.803C102.356 172.748 102.363 172.718 102.391 172.712C103.137 172.542 103.403 171.985 103.188 171.038L101.573 163.911C101.569 163.892 101.589 163.874 101.632 163.854C101.667 163.837 101.695 163.835 101.717 163.849L109.841 169.99L108.523 164.173C108.414 163.691 108.247 163.355 108.023 163.167C107.789 162.981 107.49 162.929 107.126 163.011C107.099 163.018 107.079 162.993 107.067 162.939C107.054 162.884 107.062 162.854 107.089 162.848C107.326 162.794 107.509 162.757 107.638 162.737L108.338 162.593L109.072 162.413C109.206 162.373 109.406 162.323 109.669 162.263C109.688 162.259 109.703 162.284 109.715 162.339C109.728 162.393 109.725 162.423 109.707 162.427C109.315 162.515 109.054 162.694 108.924 162.963C108.784 163.234 108.769 163.61 108.878 164.093L110.283 170.292C110.774 170.602 111.215 170.712 111.607 170.623C111.634 170.617 111.654 170.641 111.666 170.696C111.679 170.751 111.671 170.781 111.644 170.787L111.108 170.894C110.997 170.91 110.841 170.94 110.641 170.986L109.934 171.16C109.854 171.188 109.751 171.216 109.623 171.245C109.55 171.262 109.496 171.255 109.461 171.224C109.418 171.205 109.348 171.15 109.25 171.057C109.14 170.948 108.992 170.824 108.807 170.684L102.339 165.704L103.53 170.961C103.639 171.443 103.806 171.778 104.03 171.967C104.257 172.164 104.552 172.222 104.916 172.139C104.935 172.135 104.95 172.16 104.962 172.215C104.975 172.27 104.972 172.299 104.954 172.303L104.404 172.413C104.127 172.457 103.893 172.5 103.702 172.544C103.538 172.581 103.303 172.644 102.998 172.732L102.428 172.875Z" fill="white"/>
<path d="M87.1323 172.16C87.1433 171.805 87.0643 171.49 86.8954 171.214C86.7262 170.947 86.5187 170.712 86.2729 170.508C86.0268 170.314 85.684 170.075 85.2446 169.79C84.787 169.487 84.4263 169.223 84.1624 169C83.8889 168.787 83.6589 168.523 83.4725 168.209C83.2861 167.895 83.1994 167.528 83.2124 167.108C83.2265 166.651 83.3606 166.24 83.6147 165.874C83.8591 165.517 84.2086 165.239 84.663 165.038C85.1078 164.846 85.624 164.76 86.2118 164.778C86.5849 164.789 86.952 164.847 87.3129 164.952C87.6741 165.047 87.9874 165.183 88.2528 165.359C88.2986 165.388 88.3302 165.422 88.3477 165.46C88.3652 165.498 88.3728 165.554 88.3705 165.629L88.4486 167.634C88.4568 167.672 88.4374 167.694 88.3905 167.702C88.3343 167.71 88.302 167.695 88.2939 167.657C88.0919 166.941 87.7979 166.33 87.4121 165.823C87.0262 165.316 86.5114 165.053 85.8677 165.033C85.4293 165.02 85.0618 165.125 84.7654 165.349C84.4594 165.583 84.298 165.97 84.2813 166.511C84.2687 166.921 84.3509 167.283 84.5279 167.597C84.705 167.911 84.9256 168.174 85.1898 168.388C85.4444 168.61 85.7914 168.864 86.2308 169.148C86.6607 169.442 87.0031 169.69 87.2583 169.894C87.5038 170.107 87.7108 170.361 87.8791 170.656C88.0471 170.96 88.1251 171.308 88.113 171.7C88.0983 172.175 87.9598 172.577 87.6976 172.905C87.426 173.233 87.0825 173.47 86.6671 173.616C86.2421 173.771 85.8011 173.841 85.344 173.827C84.7189 173.808 84.1579 173.683 83.6607 173.453C83.5225 173.393 83.4551 173.307 83.4586 173.195L83.4427 171.443C83.4438 171.406 83.4679 171.383 83.5148 171.376C83.5617 171.368 83.5893 171.383 83.5975 171.42C83.6845 171.927 83.889 172.41 84.2111 172.868C84.5328 173.335 85.0015 173.579 85.6172 173.598C86.0836 173.612 86.4518 173.483 86.7216 173.211C86.9822 172.939 87.1191 172.589 87.1323 172.16Z" fill="white"/>
<path d="M75.5573 172.839C75.1328 172.775 74.7007 172.667 74.2611 172.516C73.8201 172.373 73.4762 172.213 73.2296 172.034C73.1613 171.986 73.1215 171.937 73.11 171.888C73.0879 171.847 73.0753 171.775 73.0722 171.67L73.1734 169.972C73.1776 169.945 73.2035 169.93 73.251 169.927C73.2971 169.934 73.3227 169.952 73.3278 169.982C73.4588 170.738 73.77 171.332 74.2614 171.765C74.7514 172.208 75.3794 172.487 76.1453 172.603C76.819 172.705 77.4287 172.636 77.9745 172.398C78.5189 172.169 78.9675 171.793 79.3203 171.271C79.6639 170.747 79.8916 170.116 80.0033 169.378C80.1332 168.519 80.0864 167.705 79.8631 166.935C79.6399 166.165 79.2789 165.525 78.7802 165.015C78.2709 164.514 77.6794 164.212 77.0057 164.11C75.6768 163.909 74.6111 164.526 73.8086 165.962C73.8044 165.99 73.7838 166.001 73.7469 165.995C73.7192 165.991 73.6968 165.983 73.6798 165.971C73.6535 165.958 73.6417 165.942 73.6445 165.923L74.0918 164.278C74.127 164.17 74.1612 164.099 74.1945 164.067C74.2172 164.042 74.2728 164.017 74.3614 163.993C75.2607 163.789 76.1533 163.754 77.0392 163.888C78.1559 164.057 79.0544 164.42 79.7349 164.976C80.4139 165.541 80.8764 166.196 81.1224 166.942C81.3683 167.687 81.434 168.438 81.3195 169.194C81.1896 170.053 80.8391 170.778 80.2679 171.372C79.6861 171.973 78.9797 172.399 78.1486 172.651C77.307 172.911 76.4432 172.973 75.5573 172.839Z" fill="white"/>
<path d="M63.0732 160.772C63.0553 160.766 63.0543 160.737 63.0701 160.683C63.086 160.63 63.1029 160.605 63.1208 160.611L65.0676 161.186C65.2824 161.249 65.5772 161.75 65.952 162.688C66.3153 163.633 66.7115 164.893 67.1408 166.47C67.3599 166.486 67.5635 166.522 67.7514 166.578C67.9215 166.628 68.1381 166.702 68.4014 166.799L69.3378 163.631C69.4172 163.362 69.4498 163.153 69.4358 163.003C69.4191 162.861 69.3458 162.747 69.2158 162.66C69.0769 162.57 68.8463 162.478 68.5241 162.383C68.4973 162.375 68.4918 162.344 68.5076 162.29C68.5235 162.237 68.5449 162.214 68.5717 162.222C68.8492 162.304 69.0672 162.373 69.2256 162.429L70.1883 162.729L71.1321 162.993C71.3048 163.034 71.5344 163.097 71.8208 163.182C71.8476 163.19 71.8531 163.221 71.8373 163.274C71.8214 163.328 71.8 163.351 71.7732 163.343C71.451 163.248 71.2071 163.2 71.0418 163.2C70.8764 163.2 70.7483 163.254 70.6576 163.364C70.5642 163.482 70.4778 163.675 70.3985 163.944L68.5613 170.16C68.4819 170.429 68.4506 170.634 68.4672 170.775C68.4839 170.916 68.5617 171.031 68.7006 171.121C68.828 171.217 69.0527 171.313 69.375 171.408C69.3929 171.413 69.3939 171.443 69.378 171.496C69.3621 171.55 69.3452 171.574 69.3273 171.569L68.66 171.357C68.2715 171.223 67.9609 171.121 67.7281 171.053C67.567 171.005 67.4136 170.965 67.2677 170.931C67.1218 170.898 66.9939 170.87 66.8838 170.847C66.5805 170.786 66.2991 170.718 66.0395 170.641C65.2787 170.416 64.7374 170.091 64.4156 169.665C64.0912 169.248 64.007 168.775 64.1631 168.247C64.2874 167.826 64.5305 167.465 64.8922 167.163C65.2539 166.862 65.6706 166.654 66.1421 166.54C65.7262 165.181 65.3629 164.105 65.0521 163.313C64.7298 162.527 64.414 161.932 64.1048 161.529C63.793 161.135 63.4491 160.883 63.0732 160.772ZM68.2982 167.148C67.9686 167.012 67.7099 166.916 67.5219 166.86C66.9491 166.691 66.5048 166.696 66.1891 166.875C65.8617 167.061 65.6055 167.467 65.4203 168.093C65.2113 168.8 65.1974 169.341 65.3787 169.716C65.5599 170.091 65.8877 170.348 66.3621 170.488C66.5948 170.557 66.7804 170.588 66.9189 170.58C67.0485 170.57 67.16 170.505 67.2534 170.387C67.3441 170.277 67.4292 170.088 67.5085 169.82L68.2982 167.148Z" fill="white"/>
<path d="M56.9826 157.747C57.7716 158.109 58.3921 158.614 58.8441 159.263C59.2838 159.916 59.5293 160.635 59.5808 161.418C59.6199 162.206 59.4682 162.974 59.1259 163.72C58.7251 164.594 58.1622 165.239 57.437 165.656C56.708 166.082 55.9279 166.294 55.0967 166.293C54.2571 166.288 53.4767 166.12 52.7556 165.789C51.9496 165.419 51.3288 164.904 50.893 164.242C50.4534 163.588 50.2144 162.878 50.176 162.111C50.1291 161.34 50.2652 160.607 50.5842 159.911C50.9383 159.139 51.4667 158.524 52.1696 158.066C52.8726 157.608 53.6532 157.35 54.5116 157.292C55.3614 157.23 56.1851 157.381 56.9826 157.747ZM56.4088 157.823C55.8659 157.574 55.3138 157.49 54.7528 157.572C54.1917 157.653 53.6656 157.905 53.1745 158.326C52.671 158.753 52.248 159.339 51.9057 160.086C51.5439 160.875 51.3609 161.643 51.3569 162.391C51.3444 163.135 51.5171 163.799 51.8751 164.384C52.2246 164.965 52.7387 165.412 53.4174 165.723C54.2997 166.128 55.125 166.141 55.8933 165.765C56.6577 165.397 57.2811 164.686 57.7636 163.634C58.1332 162.829 58.3278 162.035 58.3474 161.253C58.367 160.471 58.2121 159.779 57.8827 159.176C57.5449 158.57 57.0536 158.118 56.4088 157.823Z" fill="white"/>
<path d="M49.0779 155.072C49.2174 154.851 49.2998 154.677 49.325 154.549C49.3375 154.425 49.2969 154.305 49.2034 154.191C49.105 154.085 48.9295 153.952 48.6769 153.793L47.6705 153.158C47.1733 152.844 46.6707 152.731 46.1628 152.819C45.642 152.909 45.167 153.172 44.7376 153.608C44.7227 153.631 44.698 153.627 44.6635 153.594C44.6162 153.564 44.5999 153.537 44.6149 153.514C45.1243 152.864 45.5234 152.31 45.8124 151.852C45.8522 151.789 45.8979 151.752 45.9494 151.74C45.988 151.732 46.0389 151.747 46.102 151.787L51.6191 155.269C51.6349 155.279 51.6279 155.308 51.598 155.355C51.5681 155.402 51.5453 155.421 51.5295 155.411C51.2453 155.232 51.0277 155.122 50.8765 155.082C50.7174 155.036 50.5793 155.054 50.4622 155.135C50.3401 155.223 50.2044 155.386 50.0549 155.623L46.5954 161.104C46.4459 161.341 46.36 161.53 46.3376 161.67C46.3152 161.81 46.3587 161.943 46.468 162.067C46.5644 162.194 46.7546 162.347 47.0388 162.526C47.0546 162.536 47.0475 162.565 47.0176 162.612C46.9877 162.66 46.9649 162.678 46.9491 162.668L46.3646 162.283C46.0273 162.048 45.7521 161.863 45.539 161.729C45.3259 161.594 45.0407 161.425 44.6834 161.222L44.084 160.86C44.0682 160.85 44.0753 160.822 44.1052 160.774C44.135 160.727 44.1579 160.708 44.1737 160.718C44.4499 160.893 44.6701 160.998 44.8341 161.036C44.9932 161.081 45.1338 161.059 45.2559 160.971C45.373 160.89 45.5062 160.731 45.6557 160.495L49.0779 155.072Z" fill="white"/>
<path d="M41.911 150.161C42.0746 149.957 42.1761 149.793 42.2157 149.669C42.2421 149.547 42.2153 149.424 42.1354 149.3C42.0496 149.183 41.8902 149.031 41.6573 148.844L40.7292 148.099C40.2706 147.731 39.784 147.562 39.2694 147.592C38.7417 147.623 38.24 147.831 37.7642 148.215C37.7467 148.237 37.7226 148.229 37.6921 148.193C37.6484 148.158 37.6353 148.129 37.6529 148.108C38.2325 147.52 38.6917 147.014 39.0305 146.592C39.0772 146.534 39.1268 146.502 39.1793 146.496C39.2187 146.492 39.2675 146.513 39.3257 146.56L44.4137 150.643C44.4283 150.655 44.418 150.683 44.383 150.726C44.3479 150.77 44.3231 150.786 44.3086 150.774C44.0465 150.564 43.8427 150.43 43.697 150.373C43.544 150.31 43.4048 150.312 43.2794 150.379C43.1481 150.453 42.9948 150.6 42.8195 150.818L38.7623 155.873C38.5871 156.092 38.4804 156.269 38.4423 156.406C38.4042 156.543 38.4324 156.68 38.5269 156.815C38.6083 156.952 38.7801 157.126 39.0421 157.336C39.0567 157.348 39.0464 157.376 39.0114 157.42C38.9763 157.463 38.9515 157.479 38.9369 157.467L38.3998 157.018C38.0912 156.747 37.8386 156.532 37.6421 156.374C37.4456 156.217 37.1813 156.017 36.8494 155.774L36.2947 155.347C36.2801 155.335 36.2904 155.308 36.3254 155.264C36.3605 155.22 36.3853 155.204 36.3998 155.216C36.6546 155.42 36.8614 155.55 37.0202 155.606C37.1731 155.669 37.3152 155.663 37.4466 155.589C37.572 155.522 37.7224 155.38 37.8976 155.161L41.911 150.161Z" fill="white"/>
<path d="M31.9731 139.129C32.1554 139.341 32.3545 139.595 32.5702 139.889C32.6543 140.001 32.7596 140.138 32.8863 140.3C33.0129 140.462 33.1582 140.639 33.3223 140.83L33.971 141.565C34.0936 141.693 34.2551 141.874 34.4557 142.108C34.4678 142.122 34.4527 142.148 34.4102 142.184C34.3676 142.221 34.3403 142.232 34.3282 142.218C34.1094 141.963 33.9306 141.79 33.7919 141.7C33.6532 141.61 33.516 141.586 33.3804 141.629C33.2376 141.678 33.06 141.793 32.8475 141.975L27.9279 146.196C27.7154 146.378 27.5778 146.533 27.515 146.661C27.4523 146.788 27.4549 146.928 27.5228 147.078C27.5776 147.228 27.7113 147.427 27.924 147.675C27.9422 147.696 27.9301 147.725 27.8876 147.762C27.8451 147.798 27.8147 147.806 27.7965 147.784L27.3513 147.244C27.0981 146.92 26.8925 146.666 26.7344 146.482C26.5035 146.213 26.2589 145.949 26.0007 145.691C25.6948 145.363 25.4932 145.143 25.396 145.029C24.77 144.3 24.3557 143.53 24.1528 142.72C23.95 141.91 23.9593 141.14 24.1807 140.409C24.402 139.678 24.8173 139.051 25.4265 138.529C26.1137 137.939 26.8626 137.579 27.6735 137.449C28.4711 137.318 29.2491 137.401 30.0075 137.697C30.7588 138 31.414 138.477 31.9731 139.129ZM31.873 139.399C31.4172 138.868 30.8992 138.5 30.3191 138.297C29.7258 138.093 29.1052 138.072 28.4574 138.234C27.7964 138.395 27.1436 138.753 26.4989 139.306C25.8827 139.834 25.4208 140.421 25.1133 141.066C24.7927 141.71 24.6639 142.356 24.727 143.002C24.7768 143.648 25.0297 144.237 25.4855 144.768C25.7468 145.073 25.965 145.291 26.1402 145.424C26.3154 145.556 26.4896 145.616 26.6627 145.603C26.8287 145.596 27.0144 145.504 27.2199 145.328L32.0014 141.226C32.306 140.964 32.4582 140.705 32.4581 140.446C32.4448 140.187 32.2498 139.838 31.873 139.399Z" fill="white"/>
<path d="M24.7947 129.323C25.2606 130.056 25.5072 130.817 25.5343 131.607C25.5486 132.395 25.3646 133.131 24.9823 133.817C24.5871 134.5 24.043 135.062 23.35 135.503C22.539 136.019 21.7157 136.255 20.8804 136.211C20.0371 136.172 19.2669 135.927 18.5697 135.474C17.8675 135.014 17.3035 134.449 16.8776 133.78C16.4016 133.032 16.1604 132.262 16.154 131.469C16.1398 130.682 16.3249 129.956 16.7093 129.291C17.0888 128.618 17.6013 128.076 18.247 127.665C18.9636 127.209 19.7414 126.98 20.5803 126.977C21.4193 126.974 22.2149 127.181 22.9673 127.599C23.7146 128.008 24.3237 128.583 24.7947 129.323ZM24.2718 129.075C23.9511 128.571 23.5331 128.201 23.0177 127.965C22.5023 127.729 21.9239 127.654 21.2825 127.741C20.6282 127.826 19.9546 128.089 19.2617 128.529C18.5293 128.995 17.9584 129.541 17.5489 130.167C17.1344 130.784 16.9186 131.436 16.9013 132.122C16.8791 132.8 17.0684 133.454 17.4692 134.084C17.9903 134.903 18.6757 135.363 19.5253 135.464C20.3672 135.57 21.2763 135.312 22.2527 134.691C23.0008 134.215 23.5953 133.654 24.0363 133.008C24.4773 132.363 24.7233 131.697 24.7741 131.012C24.82 130.319 24.6525 129.674 24.2718 129.075Z" fill="white"/>
<path d="M8.2633 115.725C8.25597 115.708 8.27805 115.688 8.32954 115.666C8.38103 115.644 8.41045 115.642 8.41779 115.659C8.68187 116.277 9.27044 116.574 10.1835 116.549L18.013 116.309C18.051 116.303 18.0883 116.342 18.125 116.428C18.1617 116.514 18.1647 116.569 18.134 116.592L15.2447 119.806L19.449 119.669C19.487 119.663 19.5243 119.702 19.561 119.788C19.5977 119.874 19.6007 119.929 19.57 119.952L13.9864 126.16C13.6956 126.477 13.5213 126.734 13.4635 126.931C13.3935 127.124 13.4134 127.348 13.5235 127.606C13.5345 127.632 13.5142 127.656 13.4628 127.678C13.4113 127.7 13.38 127.698 13.369 127.672L13.2113 127.267C13.1331 127.037 13.0518 126.823 12.9675 126.626C12.8024 126.239 12.6306 125.861 12.4521 125.491C12.3921 125.374 12.3182 125.213 12.2301 125.007C12.2191 124.981 12.2394 124.957 12.2909 124.935C12.3424 124.913 12.3736 124.915 12.3846 124.941C12.491 125.19 12.5937 125.359 12.6929 125.449C12.7921 125.538 12.9146 125.552 13.0605 125.49C13.1807 125.438 13.3481 125.296 13.5628 125.062L18.0202 120.066L14.9355 120.151L12.5504 122.8C12.2952 123.081 12.1277 123.33 12.0478 123.547C11.9642 123.756 11.9683 123.967 12.06 124.182C12.071 124.207 12.0508 124.231 11.9993 124.253C11.9478 124.275 11.9165 124.273 11.9055 124.248L11.7478 123.843C11.677 123.63 11.6049 123.437 11.5315 123.266C11.3921 122.939 11.2552 122.643 11.1206 122.375C11.0754 122.293 11.0216 122.179 10.9592 122.033C10.9482 122.008 10.9684 121.984 11.0199 121.962C11.0714 121.94 11.1027 121.942 11.1137 121.967C11.176 122.113 11.2391 122.213 11.3027 122.267C11.3541 122.316 11.4185 122.324 11.4957 122.291C11.5644 122.262 11.6521 122.194 11.7588 122.087C11.8655 121.981 11.9882 121.852 12.1269 121.702L13.5384 120.124L11.6725 120.176C11.3036 120.191 11.0376 120.234 10.8746 120.303C10.6085 120.417 10.5433 120.633 10.679 120.95C10.6864 120.967 10.6643 120.987 10.6128 121.009C10.5613 121.031 10.5319 121.033 10.5246 121.016L10.4274 120.753C10.3785 120.592 10.3028 120.39 10.2001 120.15C10.1304 119.987 10.0429 119.806 9.93773 119.608L9.69928 119.085C9.69194 119.068 9.71402 119.049 9.76552 119.026C9.81701 119.004 9.84643 119.002 9.85376 119.019C9.97847 119.311 10.1768 119.526 10.4487 119.663C10.7206 119.801 11.1017 119.861 11.592 119.845L13.8347 119.784L16.5843 116.706L10.3265 116.884C10.0961 116.891 9.90368 116.927 9.74919 116.993C9.32007 117.177 9.23389 117.569 9.49064 118.17C9.50165 118.195 9.4814 118.219 9.42991 118.241C9.37841 118.263 9.34716 118.261 9.33616 118.236L9.11245 117.677C8.99757 117.36 8.89062 117.086 8.79159 116.854C8.71823 116.683 8.62528 116.489 8.51275 116.273L8.2633 115.725Z" fill="white"/>
<path d="M5.40526 103.857C5.39866 103.83 5.42257 103.809 5.47699 103.796C5.53141 103.783 5.56192 103.79 5.56853 103.817C5.74899 104.561 6.31088 104.818 7.25417 104.589L14.3561 102.866C14.3742 102.862 14.3933 102.881 14.4134 102.924C14.4313 102.958 14.4334 102.987 14.4196 103.009L8.40342 111.226L14.1992 109.819C14.68 109.703 15.0128 109.531 15.1977 109.303C15.3805 109.067 15.4278 108.767 15.3398 108.404C15.3332 108.377 15.3571 108.357 15.4115 108.344C15.4659 108.331 15.4964 108.338 15.503 108.365C15.5603 108.601 15.5997 108.783 15.6215 108.912L15.7762 109.609L15.9681 110.341C16.0102 110.475 16.0631 110.673 16.127 110.936C16.1314 110.954 16.1064 110.97 16.0519 110.983C15.9975 110.996 15.9681 110.994 15.9637 110.976C15.8691 110.586 15.6864 110.328 15.4156 110.201C15.1426 110.066 14.7658 110.056 14.2851 110.173L8.1083 111.672C7.80605 112.168 7.70225 112.611 7.79688 113.001C7.80349 113.028 7.77958 113.048 7.72516 113.061C7.67074 113.074 7.64022 113.067 7.63362 113.04L7.51848 112.506C7.50114 112.395 7.46826 112.24 7.41984 112.04L7.23457 111.336C7.20569 111.257 7.17585 111.154 7.14503 111.027C7.12743 110.954 7.13346 110.9 7.16314 110.864C7.18155 110.821 7.23637 110.75 7.3276 110.651C7.43478 110.539 7.55692 110.389 7.69404 110.202L12.5747 103.659L7.3367 104.93C6.85599 105.046 6.52316 105.218 6.33822 105.446C6.14421 105.675 6.09123 105.971 6.17926 106.334C6.18366 106.352 6.15865 106.368 6.10423 106.381C6.04981 106.394 6.0204 106.392 6.016 106.374L5.89755 105.826C5.84967 105.55 5.80262 105.316 5.7564 105.126C5.71678 104.962 5.65049 104.729 5.55752 104.425L5.40526 103.857Z" fill="white"/>
<path d="M5.84338 88.5238C6.198 88.5293 6.512 88.4455 6.78537 88.2723C7.04941 88.099 7.28136 87.8879 7.48123 87.639C7.67177 87.3899 7.90581 87.0435 8.18336 86.5997C8.47987 86.1376 8.73753 85.7728 8.95635 85.5055C9.16598 85.2287 9.42629 84.9947 9.73728 84.8035C10.0483 84.6123 10.4137 84.5199 10.8337 84.5264C11.291 84.5334 11.7044 84.6612 12.0739 84.9096C12.4343 85.1485 12.7183 85.4936 12.926 85.9449C13.1246 86.3866 13.2193 86.9015 13.2102 87.4894C13.2045 87.8627 13.1521 88.2306 13.0532 88.5931C12.9636 88.9558 12.8327 89.2711 12.6605 89.5392C12.6318 89.5854 12.5986 89.6176 12.561 89.6357C12.5234 89.6537 12.4673 89.6622 12.3926 89.6611L10.3887 89.7701C10.3512 89.7789 10.3282 89.7599 10.3195 89.7131C10.3111 89.6569 10.3256 89.6245 10.3631 89.6157C11.0758 89.4027 11.6825 89.0994 12.1833 88.7057C12.6841 88.3121 12.9395 87.7933 12.9494 87.1494C12.9562 86.7107 12.8452 86.345 12.6163 86.0521C12.3783 85.7497 11.9887 85.5943 11.4474 85.586C11.0368 85.5796 10.6761 85.6674 10.3652 85.8493C10.0544 86.0312 9.7942 86.2559 9.58471 86.5233C9.36603 86.7813 9.11792 87.1322 8.84037 87.576C8.55363 88.0103 8.31025 88.3565 8.11024 88.6148C7.90104 88.8636 7.65042 89.0744 7.35839 89.2473C7.05702 89.42 6.71036 89.5033 6.3184 89.4973C5.84246 89.4899 5.43845 89.3577 5.10638 89.1005C4.77446 88.834 4.53234 88.4942 4.38004 88.0812C4.21854 87.6586 4.14132 87.2187 4.14838 86.7614C4.15804 86.1362 4.27408 85.5732 4.4965 85.0726C4.55465 84.9335 4.63973 84.8648 4.75171 84.8665L6.50258 84.8235C6.53991 84.8241 6.56288 84.8478 6.57149 84.8946C6.58011 84.9414 6.56568 84.9692 6.5282 84.978C6.02268 85.0728 5.54335 85.2848 5.09021 85.6138C4.62775 85.9427 4.39176 86.4151 4.38225 87.0311C4.37504 87.4977 4.50941 87.8638 4.78534 88.1294C5.06141 88.3857 5.41409 88.5172 5.84338 88.5238Z" fill="white"/>
<path d="M4.9377 77.1789C4.99378 76.7532 5.09333 76.3192 5.23635 75.8767C5.37012 75.433 5.52408 75.0862 5.69824 74.8361C5.745 74.767 5.79274 74.7262 5.84144 74.7138C5.88212 74.6909 5.95456 74.6769 6.05879 74.6718L7.75839 74.7404C7.78615 74.7441 7.80161 74.7696 7.80477 74.8171C7.79867 74.8634 7.78113 74.8893 7.75215 74.8949C6.99869 75.0404 6.41018 75.363 5.98663 75.8626C5.55381 76.361 5.28681 76.9942 5.18562 77.7622C5.09662 78.4377 5.17651 79.046 5.42529 79.5872C5.66482 80.1271 6.04913 80.5684 6.57823 80.9111C7.10855 81.2446 7.74385 81.4601 8.48411 81.5576C9.34468 81.671 10.1578 81.6087 10.9234 81.3707C11.6891 81.1326 12.3219 80.7594 12.822 80.2511C13.3139 79.7322 13.6044 79.135 13.6934 78.4595C13.869 77.1271 13.2312 76.0734 11.7799 75.2985C11.7522 75.2949 11.7407 75.2745 11.7456 75.2375C11.7493 75.2097 11.757 75.1872 11.7686 75.1699C11.7816 75.1434 11.7973 75.1313 11.8158 75.1338L13.4697 75.5494C13.5783 75.5825 13.6492 75.6154 13.6826 75.648C13.7079 75.6702 13.7336 75.7254 13.7596 75.8135C13.9806 76.7087 14.0326 77.6005 13.9155 78.4888C13.768 79.6085 13.4228 80.5138 12.8799 81.2048C12.3277 81.8946 11.6815 82.3696 10.9411 82.6298C10.2008 82.8899 9.45124 82.9701 8.69246 82.8701C7.8319 82.7567 7.09958 82.4202 6.49552 81.8605C5.88342 81.2903 5.44351 80.5922 5.17578 79.7661C4.90002 78.9296 4.82066 78.0672 4.9377 77.1789Z" fill="white"/>
<path d="M16.7325 64.5564C16.7375 64.5384 16.767 64.5369 16.821 64.5517C16.875 64.5666 16.8995 64.583 16.8945 64.601L16.3561 66.5583C16.2967 66.7743 15.8016 67.0785 14.8709 67.4711C13.9336 67.8521 12.6806 68.2722 11.112 68.7313C11.1001 68.9506 11.0681 69.1548 11.0161 69.3438C10.9691 69.5148 10.8995 69.7328 10.8072 69.9978L13.9929 70.8741C14.2628 70.9483 14.4728 70.977 14.6226 70.9602C14.7634 70.9408 14.8762 70.8654 14.9608 70.7338C15.0478 70.5931 15.1359 70.3609 15.225 70.0369C15.2325 70.0099 15.2632 70.0038 15.3172 70.0187C15.3712 70.0335 15.3944 70.0544 15.387 70.0814C15.3103 70.3604 15.2451 70.5797 15.1916 70.7392L14.9107 71.7074L14.6643 72.656C14.6263 72.8294 14.5677 73.0601 14.4885 73.3481C14.481 73.3751 14.4503 73.3812 14.3963 73.3663C14.3423 73.3515 14.3191 73.3306 14.3265 73.3036C14.4156 72.9796 14.4587 72.7349 14.4558 72.5696C14.4529 72.4042 14.3958 72.2772 14.2847 72.1885C14.1646 72.0974 13.9695 72.0147 13.6995 71.9405L7.44968 70.2213C7.1797 70.1471 6.9743 70.1196 6.83346 70.1389C6.69262 70.1583 6.57866 70.2383 6.49158 70.3789C6.39798 70.508 6.30662 70.7345 6.21751 71.0585C6.21256 71.0765 6.18309 71.0781 6.12909 71.0632C6.0751 71.0484 6.05058 71.032 6.05553 71.014L6.25468 70.3427C6.38159 69.9517 6.47723 69.6392 6.54159 69.4053C6.58615 69.2433 6.62373 69.0891 6.65434 68.9426C6.68494 68.7961 6.7106 68.6677 6.7313 68.5572C6.78599 68.2528 6.84923 67.9701 6.92102 67.7091C7.13142 66.9442 7.44655 66.3969 7.86638 66.0671C8.27722 65.7348 8.74811 65.6417 9.27906 65.7877C9.70202 65.9041 10.0678 66.1402 10.3765 66.4962C10.6851 66.8521 10.9007 67.2647 11.0233 67.734C12.3741 67.2925 13.4428 66.9089 14.2294 66.5831C15.0094 66.2459 15.5979 65.919 15.9948 65.6022C16.3826 65.283 16.6286 64.9344 16.7325 64.5564ZM10.4562 69.9013C10.5863 69.5692 10.6773 69.3087 10.7293 69.1197C10.8877 68.5437 10.8744 68.0996 10.6892 67.7873C10.4976 67.4636 10.0868 67.2151 9.45682 67.0418C8.7459 66.8462 8.20482 66.8426 7.83359 67.0309C7.46235 67.2192 7.21114 67.5518 7.07995 68.0287C7.01559 68.2627 6.98858 68.4489 6.99892 68.5873C7.01173 68.7166 7.07821 68.8269 7.19834 68.918C7.30948 69.0066 7.50003 69.0881 7.77 69.1624L10.4562 69.9013Z" fill="white"/>
<path d="M19.6895 58.2421C19.3394 59.0364 18.8434 59.6644 18.2014 60.126C17.5546 60.5753 16.84 60.8316 16.0574 60.8947C15.27 60.9455 14.5006 60.8053 13.749 60.4741C12.8693 60.0864 12.2155 59.5332 11.7878 58.8143C11.3515 58.0916 11.1277 57.3148 11.1166 56.4837C11.1092 55.6441 11.2655 54.8613 11.5854 54.1354C11.9429 53.324 12.4494 52.6955 13.1047 52.2499C13.7515 51.8006 14.4581 51.551 15.2246 51.5012C15.9949 51.4429 16.7302 51.568 17.4305 51.8767C18.2077 52.2192 18.8306 52.7384 19.299 53.4344C19.7675 54.1304 20.0372 54.9071 20.1081 55.7645C20.1828 56.6134 20.0433 57.4393 19.6895 58.2421ZM19.6052 57.6695C19.8461 57.1229 19.9216 56.5697 19.8317 56.0099C19.7418 55.4501 19.4824 54.9278 19.0534 54.443C18.6197 53.9459 18.0271 53.5318 17.2755 53.2006C16.4812 52.8505 15.7102 52.6791 14.9625 52.6862C14.2186 52.6847 13.5568 52.8673 12.977 53.234C12.401 53.5922 11.9625 54.1129 11.6614 54.7961C11.27 55.6844 11.2683 56.5098 11.6564 57.2724C12.036 58.0312 12.7553 58.644 13.8143 59.1107C14.6257 59.4682 15.4223 59.651 16.2042 59.6589C16.986 59.6669 17.6759 59.5017 18.2737 59.1634C18.8753 58.8166 19.3192 58.3186 19.6052 57.6695Z" fill="white"/>
<path d="M22.0842 50.5019C22.3077 50.6373 22.4834 50.7165 22.6114 50.7394C22.7362 50.7495 22.8548 50.7068 22.9673 50.6112C23.0717 50.5108 23.2013 50.3329 23.3561 50.0775L23.9726 49.0596C24.2772 48.5567 24.381 48.0521 24.2839 47.5459C24.1836 47.0269 23.9119 46.5567 23.4687 46.1355C23.4447 46.121 23.4488 46.0962 23.481 46.0611C23.51 46.0132 23.5365 45.9965 23.5604 46.011C24.2194 46.5084 24.7804 46.8973 25.2434 47.1778C25.3073 47.2165 25.3455 47.2614 25.3581 47.3127C25.3676 47.3512 25.3529 47.4023 25.3142 47.4662L21.9342 53.0463C21.9245 53.0623 21.8957 53.0558 21.8478 53.0268C21.8 52.9977 21.7808 52.9753 21.7905 52.9593C21.9646 52.6719 22.0704 52.4523 22.1078 52.3003C22.1501 52.1405 22.1299 52.0027 22.0471 51.8871C21.9564 51.7667 21.7913 51.6339 21.5518 51.4889L16.0076 48.1306C15.7681 47.9855 15.578 47.9031 15.4372 47.8833C15.2964 47.8635 15.165 47.9094 15.0428 48.0209C14.9176 48.1196 14.7679 48.3127 14.5938 48.6C14.5841 48.616 14.5554 48.6095 14.5075 48.5805C14.4596 48.5515 14.4405 48.529 14.4501 48.513L14.8248 47.9215C15.0535 47.5799 15.2331 47.3014 15.3637 47.0858C15.4943 46.8703 15.6579 46.5821 15.8547 46.2211L16.2054 45.6152C16.2151 45.5992 16.2439 45.6057 16.2918 45.6347C16.3397 45.6638 16.3588 45.6862 16.3491 45.7022C16.1799 45.9816 16.0781 46.2037 16.0438 46.3684C16.0015 46.5283 16.0257 46.6685 16.1165 46.7889C16.1992 46.9045 16.3603 47.0348 16.5998 47.1799L22.0842 50.5019Z" fill="white"/>
<path d="M26.912 43.1323C27.1187 43.2922 27.2844 43.3907 27.4089 43.428C27.5318 43.4522 27.6545 43.4232 27.777 43.341C27.8922 43.253 28.0411 43.0909 28.2237 42.8546L28.9515 41.9131C29.3112 41.4479 29.4714 40.9584 29.4322 40.4444C29.3914 39.9174 29.1746 39.4195 28.7819 38.9508C28.7598 38.9336 28.7667 38.9095 28.8026 38.8783C28.8368 38.8339 28.865 38.8204 28.8872 38.8375C29.4856 39.4063 29.999 39.8562 30.4273 40.1873C30.4863 40.233 30.5192 40.282 30.5259 40.3343C30.531 40.3736 30.5106 40.4228 30.465 40.4819L26.4749 45.6434C26.4635 45.6582 26.4356 45.6485 26.3913 45.6142C26.347 45.58 26.3306 45.5554 26.342 45.5407C26.5475 45.2748 26.6774 45.0686 26.7318 44.9219C26.792 44.7678 26.7874 44.6287 26.7183 44.5045C26.6418 44.3745 26.4928 44.2239 26.2713 44.0527L21.1429 40.0883C20.9214 39.917 20.7418 39.8136 20.6042 39.778C20.4666 39.7424 20.3308 39.7731 20.1968 39.8701C20.0612 39.954 19.8906 40.1288 19.6851 40.3946C19.6737 40.4094 19.6458 40.3997 19.6015 40.3654C19.5572 40.3312 19.5408 40.3067 19.5522 40.2919L19.9914 39.7466C20.2573 39.4332 20.4674 39.1767 20.6215 38.9774C20.7756 38.778 20.9709 38.5101 21.2073 38.1738L21.6243 37.6114C21.6357 37.5967 21.6636 37.6064 21.7079 37.6407C21.7522 37.6749 21.7686 37.6994 21.7572 37.7142C21.5574 37.9726 21.4312 38.1817 21.3784 38.3415C21.3183 38.4956 21.3265 38.6376 21.403 38.7675C21.4721 38.8918 21.6175 39.0395 21.839 39.2107L26.912 43.1323Z" fill="white"/>
<path d="M37.6488 33.0559C37.4396 33.2421 37.1898 33.4457 36.8993 33.6668C36.7885 33.7529 36.6533 33.8607 36.4937 33.9902C36.3341 34.1197 36.1602 34.2683 35.972 34.4358L35.2492 35.0978C35.1229 35.2227 34.9448 35.3875 34.7147 35.5922C34.7007 35.6047 34.6752 35.5899 34.6379 35.5481C34.6007 35.5063 34.5891 35.4792 34.603 35.4668C34.854 35.2434 35.0232 35.0615 35.1107 34.9212C35.1982 34.7808 35.2195 34.6432 35.1744 34.5084C35.1232 34.3666 35.0045 34.1911 34.8183 33.9819L30.509 29.1399C30.3228 28.9307 30.1654 28.7959 30.0367 28.7355C29.908 28.6752 29.7689 28.6803 29.6193 28.7509C29.4705 28.8084 29.2741 28.9457 29.0301 29.1628C29.0092 29.1815 28.9801 29.1699 28.9429 29.128C28.9057 29.0862 28.8975 29.056 28.9184 29.0373L29.4506 28.5824C29.7698 28.3234 30.02 28.1132 30.2013 27.9518C30.4663 27.716 30.7254 27.4667 30.9787 27.2038C31.3009 26.892 31.5178 26.6865 31.6294 26.5872C32.3475 25.9481 33.1095 25.5198 33.9155 25.3022C34.7215 25.0847 35.4919 25.08 36.2268 25.288C36.9617 25.4961 37.596 25.8999 38.1296 26.4995C38.7315 27.1758 39.1048 27.9181 39.2494 28.7264C39.3949 29.5216 39.3264 30.301 39.0439 31.0646C38.7553 31.8213 38.2902 32.4851 37.6488 33.0559ZM37.3767 32.9607C37.8996 32.4954 38.2574 31.9708 38.45 31.387C38.6434 30.7901 38.6531 30.1692 38.4791 29.5245C38.3058 28.8665 37.9369 28.2203 37.3722 27.5859C36.8324 26.9793 36.2373 26.5282 35.5868 26.2325C34.9371 25.9236 34.2894 25.8066 33.6438 25.8814C32.999 25.943 32.4151 26.2065 31.8922 26.6719C31.5924 26.9387 31.3778 27.1609 31.2485 27.3385C31.1192 27.5161 31.0627 27.6913 31.0791 27.8641C31.0892 28.03 31.1843 28.214 31.3642 28.4162L35.5526 33.1223C35.8194 33.4221 36.0819 33.5696 36.34 33.5648C36.5988 33.5468 36.9444 33.3454 37.3767 32.9607Z" fill="white"/>
<path d="M47.645 25.4395C46.9196 25.9161 46.162 26.1738 45.3722 26.2126C44.5851 26.2384 43.8459 26.0652 43.1546 25.693C42.466 25.3079 41.8962 24.7721 41.4451 24.0857C40.9172 23.2823 40.669 22.4626 40.7005 21.6267C40.7268 20.7829 40.9611 20.0092 41.4033 19.3054C41.8532 18.5966 42.4097 18.0243 43.0728 17.5886C43.8138 17.1017 44.5804 16.8493 45.3727 16.8313C46.1598 16.8055 46.8886 16.9799 47.5592 17.3545C48.2375 17.7241 48.7868 18.2286 49.2071 18.8682C49.6735 19.5781 49.9143 20.3524 49.9294 21.1912C49.9445 22.03 49.7489 22.8286 49.3426 23.587C48.9441 24.3402 48.3782 24.9577 47.645 25.4395ZM47.8854 24.913C48.3846 24.585 48.7485 24.1616 48.9772 23.6428C49.2059 23.124 49.2719 22.5446 49.1752 21.9045C49.0812 21.2516 48.8087 20.5819 48.3576 19.8955C47.881 19.17 47.3269 18.6072 46.6953 18.2069C46.0716 17.8015 45.4167 17.5952 44.7308 17.5881C44.0526 17.5758 43.4016 17.7746 42.7776 18.1847C41.9663 18.7177 41.5165 19.4097 41.428 20.2608C41.3343 21.1041 41.6053 22.0093 42.2408 22.9766C42.7277 23.7176 43.2972 24.3038 43.9492 24.7353C44.6013 25.1668 45.2702 25.4029 45.9559 25.4438C46.6494 25.4794 47.2926 25.3025 47.8854 24.913Z" fill="white"/>
<path d="M60.9767 8.69317C60.9937 8.68558 61.0137 8.70736 61.0364 8.75852C61.0592 8.80968 61.0621 8.83906 61.045 8.84665C60.4311 9.11993 60.1433 9.71285 60.1818 10.6254L60.5388 18.4505C60.5454 18.4884 60.5061 18.5263 60.4209 18.5643C60.3356 18.6022 60.2811 18.6061 60.2574 18.5757L57.0006 15.7346L57.2006 19.9364C57.2072 19.9743 57.1679 20.0123 57.0826 20.0502C56.9974 20.0882 56.9429 20.092 56.9192 20.0617L50.6288 14.5713C50.3074 14.2852 50.0476 14.1148 49.8495 14.06C49.6562 13.9928 49.4316 14.0161 49.1758 14.13C49.1502 14.1414 49.126 14.1215 49.1033 14.0703C49.0805 14.0192 49.0819 13.9879 49.1075 13.9765L49.5097 13.8128C49.7389 13.7312 49.9517 13.6467 50.1478 13.5594C50.5315 13.3886 50.9071 13.2112 51.2747 13.0272C51.3903 12.9655 51.5504 12.8891 51.755 12.798C51.7806 12.7866 51.8048 12.8065 51.8276 12.8577C51.8503 12.9088 51.8489 12.9401 51.8233 12.9515C51.5761 13.0616 51.4084 13.1669 51.3203 13.2674C51.2322 13.3679 51.2205 13.4906 51.285 13.6355C51.3381 13.7549 51.4832 13.9202 51.7203 14.1314L56.7818 18.5138L56.6507 15.4306L53.967 13.0853C53.6816 12.8343 53.4299 12.6705 53.2119 12.5939C53.0025 12.5135 52.7911 12.5207 52.578 12.6156C52.5524 12.627 52.5282 12.6071 52.5054 12.5559C52.4827 12.5048 52.4841 12.4735 52.5096 12.4621L52.9118 12.2984C53.1241 12.2244 53.3154 12.1494 53.486 12.0735C53.81 11.9293 54.1046 11.7879 54.3699 11.6494C54.4514 11.6029 54.5646 11.5474 54.7095 11.4829C54.7351 11.4715 54.7593 11.4914 54.7821 11.5425C54.8048 11.5937 54.8034 11.625 54.7779 11.6364C54.6329 11.7009 54.5339 11.7654 54.4809 11.8298C54.4326 11.882 54.4255 11.9464 54.4597 12.0232C54.49 12.0914 54.5593 12.1781 54.6674 12.2832C54.7754 12.3883 54.9058 12.5091 55.0585 12.6454L56.657 14.0333L56.5778 12.1684C56.5567 11.7998 56.5101 11.5344 56.438 11.3724C56.3203 11.1081 56.1038 11.0462 55.7883 11.1866C55.7712 11.1942 55.7513 11.1724 55.7285 11.1212C55.7058 11.0701 55.7029 11.0407 55.72 11.0331L55.9815 10.932C56.1425 10.8808 56.3424 10.802 56.5812 10.6957C56.7432 10.6236 56.9227 10.5335 57.1198 10.4253L57.6385 10.1791C57.6555 10.1715 57.6754 10.1933 57.6982 10.2445C57.721 10.2956 57.7238 10.325 57.7068 10.3326C57.4169 10.4616 57.2052 10.6631 57.0717 10.9371C56.9383 11.211 56.8835 11.593 56.9075 12.0829L57.0012 14.3245L60.12 17.0278L59.8492 10.7734C59.8387 10.5432 59.7992 10.3513 59.7309 10.1978C59.5411 9.77148 59.1478 9.69115 58.5509 9.95684C58.5254 9.96823 58.5012 9.94834 58.4784 9.89718C58.4556 9.84602 58.457 9.81474 58.4826 9.80336L59.0383 9.57134C59.3528 9.45175 59.6252 9.34072 59.8555 9.23824C60.026 9.16233 60.2183 9.06651 60.4324 8.95077L60.9767 8.69317Z" fill="white"/>
<path d="M72.3843 5.72124C72.4114 5.71412 72.432 5.73764 72.4463 5.7918C72.4605 5.84596 72.4541 5.8766 72.427 5.88372C71.6868 6.07829 71.4401 6.64496 71.6869 7.58374L73.5448 14.6516C73.5495 14.6697 73.5305 14.6892 73.4878 14.71C73.454 14.7286 73.4257 14.7312 73.403 14.7179L65.0738 8.85886L66.59 14.6269C66.7157 15.1053 66.894 15.4348 67.1249 15.6154C67.3647 15.7936 67.6652 15.8353 68.0262 15.7404C68.0533 15.7332 68.074 15.7568 68.0882 15.8109C68.1025 15.8651 68.096 15.8957 68.069 15.9028C67.8343 15.9645 67.6525 16.0075 67.5238 16.0317L66.8297 16.1996L66.1021 16.4054C65.9691 16.45 65.7717 16.5067 65.5099 16.5755C65.4918 16.5803 65.4757 16.5556 65.4615 16.5014C65.4472 16.4472 65.4491 16.4178 65.4672 16.413C65.8553 16.311 66.11 16.1234 66.2312 15.8503C66.3615 15.5748 66.3637 15.1979 66.2379 14.7194L64.6221 8.57228C64.1205 8.27951 63.6756 8.18414 63.2875 8.28617C63.2604 8.29328 63.2398 8.26976 63.2255 8.2156C63.2113 8.16144 63.2177 8.1308 63.2448 8.12369L63.7764 7.99842C63.8871 7.97897 64.0417 7.94315 64.2403 7.89095L64.9408 7.69233C65.0197 7.66195 65.1223 7.63015 65.2487 7.59693C65.3209 7.57794 65.3753 7.58295 65.4119 7.61194C65.4551 7.62952 65.5271 7.68299 65.6278 7.77233C65.7422 7.87735 65.8942 7.99663 66.0837 8.13017L72.7187 12.8856L71.3484 7.67272C71.2226 7.1943 71.0443 6.8648 70.8135 6.68422C70.5803 6.49461 70.2832 6.44726 69.9221 6.54217C69.9041 6.54691 69.8879 6.52221 69.8737 6.46805C69.8594 6.41389 69.8613 6.38443 69.8794 6.37969L70.4246 6.25086C70.7001 6.19773 70.9327 6.14625 71.1222 6.09642C71.2847 6.05371 71.517 5.98299 71.8192 5.88427L72.3843 5.72124Z" fill="white"/>
<path d="M87.318 5.8242C87.3208 6.17886 87.4119 6.49083 87.5913 6.76012C87.7706 7.02007 87.987 7.24708 88.2406 7.44113C88.494 7.62584 88.8457 7.8518 89.2958 8.119C89.7647 8.40472 90.1353 8.65387 90.4076 8.86644C90.6892 9.0696 90.9292 9.32443 91.1275 9.6309C91.3259 9.93738 91.4267 10.3006 91.43 10.7206C91.4335 11.1779 91.3154 11.5942 91.0756 11.9694C90.8451 12.3352 90.5067 12.6271 90.0603 12.8452C89.6233 13.054 89.1107 13.1606 88.5227 13.1651C88.1494 13.168 87.7804 13.1242 87.4157 13.0337C87.0511 12.9525 86.7328 12.8289 86.4608 12.663C86.4139 12.6354 86.381 12.603 86.3621 12.5658C86.3431 12.5286 86.3333 12.4727 86.3328 12.398L86.1773 10.3971C86.1677 10.3599 86.1862 10.3364 86.2328 10.3267C86.2887 10.3169 86.3215 10.3307 86.3311 10.368C86.5606 11.0755 86.8779 11.6751 87.283 12.1667C87.6881 12.6582 88.2127 12.9015 88.8567 12.8965C89.2953 12.8931 89.6584 12.7737 89.946 12.5381C90.2427 12.2931 90.389 11.9 90.3849 11.3587C90.3817 10.948 90.2856 10.5894 90.0965 10.2829C89.9075 9.97633 89.6769 9.72144 89.4046 9.5182C89.1416 9.30556 88.7851 9.06564 88.335 8.79844C87.8942 8.52183 87.5424 8.28654 87.2796 8.09256C87.026 7.88918 86.8094 7.64351 86.6298 7.35556C86.4502 7.05827 86.3589 6.71363 86.3559 6.32164C86.3522 5.84566 86.475 5.4387 86.7244 5.10076C86.9832 4.76275 87.3172 4.51283 87.7267 4.351C88.1454 4.17976 88.5834 4.09238 89.0407 4.08885C89.666 4.08402 90.2315 4.18699 90.7371 4.39776C90.8776 4.45268 90.9482 4.53614 90.9491 4.64813L91.0326 6.39754C91.0329 6.43487 91.0097 6.45838 90.9631 6.46808C90.9165 6.47777 90.8884 6.46399 90.8788 6.42673C90.7722 5.92354 90.5492 5.44924 90.2098 5.00385C89.8703 4.54912 89.3925 4.32414 88.7765 4.3289C88.3099 4.3325 87.947 4.4753 87.6878 4.75731C87.438 5.03925 87.3147 5.39488 87.318 5.8242Z" fill="white"/>
<path d="M99.5231 4.73267C99.9495 4.7822 100.385 4.87507 100.83 5.01127C101.275 5.13821 101.624 5.28682 101.877 5.45711C101.947 5.50281 101.989 5.54991 102.002 5.59842C102.025 5.63874 102.04 5.71096 102.047 5.81509L102.005 7.51555C102.001 7.54336 101.976 7.55921 101.929 7.5631C101.882 7.55772 101.856 7.54058 101.85 7.51169C101.693 6.76055 101.361 6.17707 100.855 5.76124C100.35 5.33614 99.713 5.0789 98.9436 4.98952C98.2668 4.91092 97.6598 5.00015 97.1225 5.25721C96.5863 5.50501 96.151 5.89606 95.8164 6.43036C95.4912 6.96574 95.2855 7.60427 95.1993 8.34595C95.0992 9.20816 95.174 10.0202 95.4237 10.7821C95.6735 11.544 96.0564 12.171 96.5724 12.6632C97.0987 13.1472 97.7003 13.4284 98.3771 13.507C99.7121 13.6621 100.756 13.0082 101.508 11.5452C101.512 11.5174 101.532 11.5056 101.569 11.5099C101.597 11.5132 101.619 11.5205 101.637 11.5319C101.663 11.5444 101.676 11.56 101.674 11.5785L101.283 13.2386C101.252 13.3477 101.22 13.4191 101.188 13.453C101.166 13.4787 101.112 13.5052 101.024 13.5326C100.132 13.7673 99.2413 13.8329 98.3512 13.7296C97.2294 13.5993 96.3189 13.268 95.6197 12.7358C94.9215 12.1943 94.4366 11.5554 94.1651 10.8191C93.8935 10.0829 93.8019 9.33467 93.8902 8.57445C93.9904 7.71224 94.3156 6.97484 94.866 6.36225C95.4267 5.74146 96.1179 5.29087 96.9398 5.01048C97.7719 4.7219 98.633 4.62929 99.5231 4.73267Z" fill="white"/>
<path d="M112.36 16.3369C112.378 16.3416 112.38 16.371 112.366 16.4252C112.352 16.4795 112.336 16.5042 112.318 16.4996L110.352 15.9909C110.135 15.9348 109.824 15.4444 109.417 14.5197C109.022 13.5883 108.583 12.3418 108.1 10.7804C107.88 10.7718 107.676 10.7429 107.486 10.6938C107.314 10.6494 107.095 10.5831 106.829 10.4948L106.001 13.6935C105.931 13.9645 105.905 14.1748 105.925 14.3244C105.946 14.4649 106.023 14.5765 106.156 14.6591C106.298 14.744 106.532 14.8286 106.857 14.9128C106.884 14.9198 106.891 14.9504 106.877 15.0046C106.863 15.0588 106.842 15.0824 106.815 15.0754C106.535 15.0029 106.315 14.9411 106.154 14.89L105.182 14.6239L104.23 14.3919C104.056 14.3565 103.824 14.3014 103.535 14.2265C103.508 14.2195 103.501 14.1889 103.515 14.1347C103.529 14.0805 103.55 14.0569 103.577 14.0639C103.902 14.1481 104.148 14.1875 104.313 14.182C104.478 14.1766 104.604 14.1177 104.691 14.0052C104.781 13.8837 104.86 13.6874 104.93 13.4163L106.554 7.1411C106.625 6.87003 106.649 6.66423 106.628 6.5237C106.606 6.38317 106.524 6.27044 106.382 6.18551C106.252 6.09388 106.024 6.00597 105.699 5.92178C105.681 5.91711 105.679 5.88766 105.693 5.83345C105.707 5.77923 105.723 5.75447 105.741 5.75914L106.415 5.94808C106.808 6.06905 107.122 6.15993 107.357 6.22073C107.519 6.26282 107.674 6.29806 107.821 6.32644C107.968 6.35482 108.097 6.37852 108.208 6.39755C108.513 6.44761 108.796 6.50655 109.058 6.57437C109.826 6.77314 110.378 7.07992 110.715 7.4947C111.053 7.90045 111.153 8.36987 111.015 8.90297C110.905 9.32765 110.675 9.69699 110.324 10.011C109.972 10.325 109.563 10.5469 109.096 10.6766C109.558 12.0205 109.958 13.0833 110.295 13.8648C110.644 14.6396 110.98 15.2231 111.303 15.6151C111.628 15.9981 111.98 16.2387 112.36 16.3369ZM106.92 10.1425C107.254 10.2675 107.516 10.3545 107.706 10.4036C108.284 10.5533 108.728 10.5332 109.037 10.3433C109.358 10.1468 109.6 9.73225 109.764 9.09975C109.949 8.38594 109.944 7.84487 109.75 7.47654C109.556 7.10821 109.22 6.86207 108.741 6.73813C108.506 6.67733 108.32 6.65315 108.182 6.66559C108.052 6.68037 107.943 6.74851 107.854 6.87001C107.767 6.98248 107.688 7.17425 107.618 7.44532L106.92 10.1425Z" fill="white"/>
<path d="M118.343 19.0368C117.542 18.7016 116.905 18.2174 116.432 17.5841C115.97 16.9458 115.701 16.2361 115.623 15.4548C115.557 14.6686 115.683 13.8966 116 13.139C116.372 12.2522 116.913 11.5882 117.623 11.1471C118.338 10.6974 119.11 10.4592 119.941 10.4326C120.78 10.4095 121.566 10.5511 122.298 10.8575C123.116 11.1998 123.753 11.6944 124.211 12.3413C124.672 12.9796 124.935 13.6815 124.999 14.4469C125.072 15.216 124.961 15.9535 124.665 16.6595C124.337 17.4429 123.83 18.0753 123.142 18.5567C122.455 19.038 121.684 19.3222 120.828 19.4091C119.98 19.4996 119.152 19.3755 118.343 19.0368ZM118.914 18.9418C119.465 19.1725 120.019 19.2376 120.577 19.1373C121.135 19.037 121.653 18.7679 122.129 18.33C122.618 17.8871 123.021 17.2868 123.338 16.5292C123.674 15.7285 123.831 14.9544 123.81 14.207C123.797 13.4632 123.602 12.8049 123.225 12.232C122.856 11.6628 122.327 11.2341 121.638 10.9458C120.743 10.571 119.918 10.5847 119.163 10.987C118.411 11.3807 117.812 12.1113 117.365 13.1789C117.022 13.9968 116.855 14.7967 116.861 15.5785C116.868 16.3604 117.046 17.047 117.395 17.6385C117.753 18.2335 118.259 18.668 118.914 18.9418Z" fill="white"/>
<path d="M126.595 21.5286C126.463 21.754 126.386 21.9309 126.365 22.0592C126.357 22.1842 126.402 22.3021 126.499 22.4132C126.601 22.5162 126.781 22.6431 127.038 22.7941L128.065 23.3956C128.572 23.6928 129.078 23.7891 129.583 23.6845C130.101 23.5767 130.567 23.298 130.981 22.8487C130.996 22.8245 131.02 22.8282 131.056 22.8599C131.104 22.8882 131.121 22.9144 131.107 22.9386C130.62 23.6048 130.239 24.1715 129.965 24.6386C129.928 24.703 129.883 24.7419 129.832 24.7552C129.794 24.7652 129.742 24.7514 129.678 24.7136L124.049 21.4161C124.033 21.4066 124.039 21.3778 124.067 21.3294C124.095 21.2811 124.118 21.2617 124.134 21.2711C124.424 21.4409 124.645 21.5435 124.797 21.5787C124.958 21.6186 125.095 21.5964 125.21 21.5119C125.329 21.4194 125.459 21.2524 125.6 21.0108L128.877 15.4177C129.018 15.1761 129.098 14.9848 129.116 14.8438C129.133 14.7027 129.086 14.5719 128.972 14.4515C128.872 14.3277 128.676 14.1809 128.387 14.011C128.37 14.0016 128.377 13.9727 128.405 13.9244C128.433 13.8761 128.455 13.8566 128.471 13.8661L129.068 14.232C129.413 14.4556 129.694 14.6312 129.912 14.7585C130.129 14.8859 130.42 15.0453 130.784 15.2368L131.395 15.5785C131.411 15.588 131.405 15.6169 131.376 15.6652C131.348 15.7135 131.326 15.7329 131.31 15.7235C131.028 15.5584 130.804 15.4599 130.639 15.428C130.479 15.3881 130.339 15.4144 130.22 15.5069C130.106 15.5913 129.978 15.7543 129.836 15.9959L126.595 21.5286Z" fill="white"/>
<path d="M133.657 25.9831C133.501 26.1927 133.406 26.3601 133.371 26.4853C133.349 26.6086 133.38 26.7307 133.465 26.8518C133.555 26.9653 133.719 27.1112 133.959 27.2896L134.914 28.0001C135.385 28.3512 135.878 28.5024 136.391 28.4539C136.917 28.4034 137.411 28.1776 137.872 27.7765C137.889 27.754 137.913 27.7605 137.945 27.7958C137.99 27.8292 138.004 27.8572 137.988 27.8796C137.43 28.4884 136.989 29.0098 136.666 29.4441C136.622 29.504 136.573 29.5378 136.521 29.5454C136.482 29.5512 136.432 29.5317 136.372 29.4872L131.139 25.5919C131.124 25.5807 131.133 25.5527 131.166 25.5078C131.2 25.4628 131.224 25.446 131.239 25.4571C131.509 25.6577 131.717 25.7839 131.865 25.8356C132.02 25.8929 132.159 25.8859 132.282 25.8145C132.411 25.7356 132.558 25.5839 132.726 25.3593L136.596 20.1595C136.763 19.9349 136.863 19.7534 136.896 19.6152C136.929 19.4769 136.896 19.3417 136.797 19.2095C136.71 19.0755 136.532 18.9081 136.263 18.7075C136.248 18.6963 136.257 18.6683 136.291 18.6234C136.324 18.5785 136.348 18.5616 136.363 18.5727L136.916 19.0019C137.235 19.2621 137.495 19.4674 137.697 19.6179C137.899 19.7683 138.171 19.9587 138.511 20.1889L139.081 20.5956C139.096 20.6067 139.087 20.6348 139.053 20.6797C139.02 20.7246 138.996 20.7415 138.981 20.7304C138.719 20.5353 138.507 20.4129 138.347 20.3631C138.191 20.3058 138.05 20.3166 137.921 20.3954C137.798 20.4668 137.653 20.6148 137.486 20.8394L133.657 25.9831Z" fill="white"/>
<path d="M144.311 36.9149C144.122 36.7084 143.915 36.4616 143.689 36.1743C143.602 36.0648 143.492 35.9312 143.36 35.7735C143.228 35.6158 143.077 35.4441 142.907 35.2583L142.234 34.5452C142.108 34.4208 141.94 34.245 141.732 34.018C141.72 34.0042 141.734 33.9784 141.775 33.9406C141.817 33.9027 141.844 33.8907 141.856 33.9044C142.083 34.1522 142.267 34.3188 142.409 34.4042C142.551 34.4897 142.689 34.5089 142.823 34.4619C142.964 34.4086 143.138 34.2874 143.344 34.0982L148.123 29.7189C148.329 29.5297 148.462 29.3703 148.52 29.2408C148.579 29.1112 148.572 28.9722 148.499 28.8237C148.439 28.6757 148.299 28.4813 148.078 28.2405C148.059 28.2199 148.071 28.1906 148.112 28.1528C148.153 28.1149 148.183 28.1064 148.202 28.127L148.665 28.6525C148.929 28.9679 149.142 29.2151 149.306 29.394C149.546 29.6554 149.799 29.9109 150.066 30.1604C150.382 30.478 150.591 30.6919 150.692 30.802C151.341 31.5108 151.78 32.2665 152.01 33.0692C152.239 33.8719 152.255 34.6422 152.057 35.3801C151.86 36.1179 151.466 36.758 150.874 37.3003C150.206 37.912 149.469 38.296 148.663 38.4524C147.87 38.6094 147.09 38.5522 146.322 38.2809C145.562 38.0033 144.891 37.5479 144.311 36.9149ZM144.402 36.6414C144.875 37.1575 145.405 37.5076 145.991 37.6917C146.591 37.8764 147.212 37.8771 147.854 37.6937C148.51 37.5109 149.15 37.1326 149.776 36.5588C150.375 36.0102 150.818 35.4086 151.104 34.7538C151.403 34.0997 151.511 33.4504 151.427 32.806C151.356 32.1621 151.084 31.5821 150.611 31.066C150.34 30.7701 150.114 30.5588 149.935 30.4321C149.755 30.3054 149.579 30.2514 149.407 30.2703C149.241 30.2829 149.058 30.3806 148.859 30.5635L144.214 34.8199C143.918 35.091 143.775 35.3556 143.783 35.6136C143.805 35.8722 144.011 36.2148 144.402 36.6414Z" fill="white"/>
<path d="M151.785 46.4135C151.295 45.6969 151.024 44.9441 150.97 44.1552C150.93 43.3687 151.09 42.6264 151.449 41.9284C151.822 41.2329 152.347 40.6534 153.025 40.1899C153.819 39.6473 154.634 39.3841 155.47 39.4003C156.314 39.4112 157.092 39.6312 157.804 40.0604C158.521 40.4974 159.103 41.0433 159.551 41.6982C160.051 42.4302 160.318 43.1921 160.35 43.9839C160.39 44.7704 160.229 45.5023 159.867 46.1796C159.51 46.8646 159.016 47.423 158.384 47.855C157.683 48.3343 156.913 48.5892 156.074 48.6197C155.236 48.6501 154.434 48.4692 153.668 48.0768C152.908 47.6922 152.28 47.1377 151.785 46.4135ZM152.316 46.6442C152.653 47.1373 153.083 47.4934 153.606 47.7125C154.129 47.9317 154.709 47.9871 155.347 47.8787C155.999 47.7727 156.663 47.488 157.341 47.0245C158.058 46.5346 158.61 45.9703 158.999 45.3315C159.393 44.7004 159.587 44.0419 159.582 43.356C159.582 42.6777 159.371 42.0304 158.949 41.414C158.402 40.6127 157.702 40.1755 156.849 40.1026C156.004 40.0244 155.104 40.3119 154.149 40.9651C153.417 41.4654 152.841 42.0456 152.421 42.7054C152.002 43.3652 151.778 44.0383 151.75 44.7247C151.727 45.4188 151.915 46.0586 152.316 46.6442Z" fill="white"/>
<path d="M168.787 59.4419C168.795 59.4588 168.774 59.4791 168.723 59.5028C168.672 59.5265 168.643 59.5299 168.635 59.513C168.35 58.9043 167.752 58.6276 166.841 58.683L159.023 59.1856C158.986 59.193 158.947 59.1544 158.908 59.0698C158.868 58.9853 158.863 58.9309 158.893 58.9066L161.673 55.5975L157.476 55.8756C157.438 55.883 157.399 55.8444 157.36 55.7598C157.32 55.6753 157.315 55.6209 157.345 55.5966L162.718 49.2052C162.998 48.8785 163.163 48.6156 163.214 48.4165C163.278 48.2219 163.25 47.9978 163.132 47.7442C163.12 47.7188 163.139 47.6943 163.19 47.6706C163.241 47.6468 163.272 47.6477 163.284 47.673L163.455 48.0721C163.541 48.2998 163.629 48.5109 163.72 48.7054C163.898 49.0858 164.083 49.4581 164.273 49.8222C164.337 49.9366 164.417 50.0953 164.512 50.2982C164.523 50.3235 164.504 50.3481 164.453 50.3718C164.402 50.3955 164.371 50.3947 164.359 50.3693C164.245 50.1242 164.136 49.9585 164.034 49.8723C163.932 49.7861 163.809 49.7766 163.665 49.8438C163.547 49.8992 163.384 50.0473 163.178 50.2882L158.89 55.4305L161.97 55.242L164.265 52.5151C164.511 52.2251 164.67 51.9704 164.743 51.751C164.819 51.5401 164.808 51.3289 164.709 51.1176C164.697 51.0922 164.717 51.0677 164.768 51.044C164.818 51.0202 164.85 51.0211 164.861 51.0464L165.033 51.4455C165.111 51.6563 165.189 51.8463 165.268 52.0154C165.418 52.3366 165.565 52.6286 165.709 52.8912C165.757 52.9718 165.814 53.084 165.881 53.2277C165.893 53.2531 165.874 53.2776 165.823 53.3013C165.772 53.3251 165.741 53.3242 165.729 53.2989C165.662 53.1551 165.596 53.0574 165.53 53.0055C165.477 52.9582 165.413 52.9524 165.337 52.9879C165.269 53.0196 165.184 53.0904 165.08 53.2004C164.977 53.3105 164.859 53.4431 164.726 53.5982L163.368 55.2223L165.231 55.1084C165.599 55.0805 165.863 55.0289 166.024 54.9538C166.286 54.8313 166.344 54.6136 166.198 54.3007C166.19 54.2838 166.211 54.2635 166.262 54.2398C166.313 54.2161 166.342 54.2127 166.35 54.2296L166.456 54.4892C166.51 54.6492 166.593 54.8477 166.703 55.0844C166.778 55.245 166.872 55.4228 166.984 55.6178L167.239 56.1319C167.247 56.1488 167.226 56.1691 167.175 56.1928C167.124 56.2165 167.095 56.2199 167.087 56.203C166.953 55.9156 166.747 55.7077 166.471 55.5793C166.195 55.451 165.812 55.4034 165.322 55.4365L163.083 55.5718L160.438 58.7405L166.686 58.3533C166.916 58.3385 167.108 58.2955 167.26 58.2243C167.682 58.0266 167.755 57.6319 167.479 57.04C167.467 57.0147 167.486 56.9901 167.537 56.9664C167.588 56.9427 167.619 56.9435 167.631 56.9689L167.873 57.5201C167.999 57.8324 168.115 58.1027 168.221 58.331C168.3 58.5 168.4 58.6905 168.52 58.9025L168.787 59.4419Z" fill="white"/>
<path d="M172.094 71.2806C172.102 71.3075 172.079 71.3285 172.025 71.3436C171.971 71.3587 171.94 71.3527 171.932 71.3257C171.727 70.5886 171.156 70.3505 170.221 70.6115L163.182 72.5764C163.164 72.5814 163.145 72.5627 163.123 72.5203C163.104 72.4868 163.101 72.4586 163.114 72.4356L168.846 64.0185L163.102 65.622C162.625 65.755 162.298 65.9383 162.121 66.1718C161.947 66.4144 161.91 66.7154 162.01 67.075C162.018 67.102 161.994 67.123 161.94 67.1381C161.887 67.1531 161.856 67.1472 161.848 67.1202C161.783 66.8865 161.737 66.7054 161.711 66.577L161.533 65.8856L161.316 65.1612C161.269 65.0288 161.21 64.8323 161.137 64.5716C161.132 64.5536 161.156 64.5371 161.21 64.5221C161.264 64.507 161.294 64.5085 161.299 64.5265C161.407 64.913 161.598 65.1648 161.873 65.2819C162.15 65.4079 162.527 65.4044 163.004 65.2714L169.126 63.5625C169.411 63.0565 169.499 62.6103 169.392 62.2237C169.384 62.1967 169.407 62.1757 169.461 62.1607C169.515 62.1456 169.546 62.1516 169.553 62.1785L169.687 62.7082C169.708 62.8186 169.746 62.9727 169.801 63.1704L170.01 63.8679C170.042 63.9463 170.075 64.0484 170.11 64.1742C170.131 64.2462 170.126 64.3006 170.098 64.3376C170.081 64.3811 170.029 64.4539 169.941 64.5559C169.838 64.6719 169.721 64.8257 169.59 65.0172L164.936 71.7236L170.127 70.2744C170.604 70.1414 170.93 69.9581 171.107 69.7246C171.294 69.4885 171.336 69.1907 171.236 68.8311C171.231 68.8131 171.255 68.7966 171.309 68.7815C171.363 68.7665 171.393 68.768 171.398 68.7859L171.535 69.3291C171.592 69.6038 171.647 69.8355 171.7 70.0243C171.745 70.1861 171.819 70.4173 171.923 70.718L172.094 71.2806Z" fill="white"/>
</svg>
