<svg width="20" height="20" viewBox="0 0 20 20" fill="none" xmlns="http://www.w3.org/2000/svg">
<g clip-path="url(#clip0_1_4516)">
<path d="M19.8172 18.9266L13.7443 12.8166C14.8762 11.4609 15.5584 9.71688 15.5584 7.8125C15.5584 3.49781 12.0606 0 7.7459 0C3.43121 0 -0.0666046 3.49781 -0.0666046 7.8125C-0.0666046 12.1272 3.43121 15.625 7.7459 15.625C9.70621 15.625 11.4968 14.9012 12.8687 13.7081L18.9331 19.8106C19.1771 20.0547 19.5731 20.0547 19.8172 19.8106C20.0609 19.5666 20.0609 19.1709 19.8172 18.9266H19.8172ZM7.7459 14.3853C4.1159 14.3853 1.17308 11.4425 1.17308 7.8125C1.17308 4.1825 4.1159 1.23969 7.7459 1.23969C11.3759 1.23969 14.3187 4.1825 14.3187 7.8125C14.3187 11.4425 11.3759 14.3853 7.7459 14.3853Z" fill="#111111"/>
</g>
<defs>
<clipPath id="clip0_1_4516">
<rect width="20" height="20" fill="white"/>
</clipPath>
</defs>
</svg>
