<svg width="22" height="16" viewBox="0 0 22 16" fill="none" xmlns="http://www.w3.org/2000/svg">
<path d="M21.54 2.41999C21.29 1.46999 20.54 0.71999 19.6 0.45999C17.88 -0.0100098 11 -0.0100098 11 -0.0100098C11 -0.0100098 4.12 -0.0100098 2.4 0.44999C1.45 0.70999 0.71 1.45999 0.46 2.40999C0 4.13999 0 7.73999 0 7.73999C0 7.73999 0 11.34 0.46 13.07C0.71 14.02 1.46 14.77 2.4 15.03C4.12 15.49 11 15.49 11 15.49C11 15.49 17.88 15.49 19.6 15.03C20.55 14.77 21.29 14.02 21.54 13.07C22 11.34 22 7.73999 22 7.73999C22 7.73999 22 4.13999 21.55 2.40999L21.54 2.41999ZM8.75 11.02V4.47999L14.5 7.74999L8.75 11.02Z" fill="white"/>
</svg>
